<svg width="3122" height="432" viewBox="0 0 3122 432" fill="none" xmlns="http://www.w3.org/2000/svg">
<path fill-rule="evenodd" clip-rule="evenodd" d="M1639.94 130C1641.63 130 1643.16 130.387 1644.48 131.193C1645.8 131.998 1646.87 133.191 1647.7 134.713C1649.35 137.729 1650.12 142.13 1650.12 147.791C1650.12 150.408 1649.76 153.552 1649.03 157.205C1648.37 160.523 1647.55 164.452 1646.58 168.981C1651.67 168.648 1659.2 168.301 1669.16 167.969C1680.36 167.246 1691.02 166.884 1701.15 166.884C1710.42 166.884 1717.54 168.295 1722.37 171.235C1727.28 174.223 1729.74 178.75 1729.74 184.675C1729.74 187.833 1728.8 191.741 1727 196.355C1725.2 200.983 1722.49 206.394 1718.91 212.568C1711.76 224.911 1701.03 240.403 1686.77 259.035C1680.64 268.062 1673.79 278.35 1666.22 289.904C1659.08 300.978 1655.54 312.374 1655.54 324.101C1655.54 327.206 1656.23 330.13 1657.61 332.888C1658.82 335.31 1661.43 336.696 1665.94 336.697C1681.07 336.697 1697.99 327.513 1716.71 308.768C1726.06 299.4 1734.7 289.312 1742.61 278.501C1750.52 267.703 1757.71 255.638 1764.19 242.304C1764.92 240.827 1765.65 239.646 1766.36 238.833C1767.04 238.051 1767.88 237.41 1768.85 237.41C1769.5 237.411 1770.09 237.682 1770.47 238.254C1770.8 238.759 1770.9 239.394 1770.9 240.014C1770.9 242.012 1770.3 244.145 1769.18 246.402C1763.01 259.114 1755.59 271.465 1746.89 283.443L1746.88 283.455C1738.18 295.066 1728.59 306.132 1718.08 316.651C1700.3 334.464 1682.91 343.519 1665.94 343.519C1654.99 343.519 1646.59 341.093 1640.93 336.082C1635.24 331.05 1632.48 323.56 1632.48 313.795C1632.48 298.357 1638.52 280.815 1650.49 261.204C1654.5 254.259 1665.56 238.844 1683.59 215.014C1689.53 207.081 1693.96 200.343 1696.9 194.8C1699.87 189.226 1701.26 184.969 1701.26 181.963C1701.25 179.214 1700.15 177.228 1697.93 175.876C1695.63 174.479 1692.05 173.719 1687.07 173.718C1680.23 173.718 1672.65 173.9 1664.36 174.261C1656.81 174.605 1650.56 174.942 1645.63 175.285C1644.54 180.937 1642.96 187.421 1640.88 194.716C1638.71 202.329 1636.17 210.311 1633.27 218.643C1631.45 223.745 1628.56 230.651 1624.58 239.339C1621.86 245.883 1618.42 252.727 1614.28 259.866C1608.33 271.984 1601.94 284.329 1595.1 296.895C1586.37 312.925 1575.25 325.704 1561.76 335.202L1558.12 337.577C1554.42 339.842 1550.51 341.8 1546.4 343.447C1541.23 345.664 1535.69 346.773 1529.79 346.774C1517.7 346.774 1508.46 343.418 1502.26 336.552C1496.08 329.704 1493.07 319.527 1493.07 306.201C1493.07 301.647 1493.38 297.033 1494.01 292.363C1493.2 293.87 1492.38 295.382 1491.56 296.895C1482.83 312.925 1471.71 325.704 1458.22 335.202L1454.54 337.577C1450.77 339.843 1446.7 341.801 1442.32 343.447C1436.78 345.665 1430.88 346.773 1424.63 346.774C1414.33 346.773 1405.79 344.006 1399.08 338.408L1399.07 338.396C1392.66 332.726 1389.53 324.092 1389.53 312.71C1389.53 292.911 1398.67 268.129 1416.76 238.423C1425.95 223.246 1432.84 210.888 1437.43 201.346C1439.72 196.575 1441.43 192.523 1442.56 189.183C1443.7 185.827 1444.24 183.251 1444.24 181.421C1444.24 178.53 1443.43 176.533 1441.98 175.237C1440.52 173.923 1438.22 173.177 1434.92 173.176H1431.67C1428.05 173.176 1423.58 175.288 1418.21 179.854C1412.88 184.398 1406.79 191.259 1399.95 200.454C1386.28 218.48 1369.68 245.197 1350.2 280.623L1350.17 280.647C1345.5 288.572 1340.64 297.774 1335.6 308.238C1330.91 318.353 1325.86 329.736 1320.45 342.386L1320.3 342.711L1318.47 343.628L1318.04 343.411C1313.78 341.278 1310.13 340.265 1307.09 340.265C1302.89 340.265 1299.19 342.82 1296.04 348.425C1294.59 351.512 1293.16 354.002 1291.76 355.874C1290.36 357.741 1288.92 359.079 1287.43 359.719L1286.59 360.081L1285.43 357.754L1285.62 357.333C1293.65 339.926 1303.12 318.372 1314.03 292.689C1307.55 302.22 1299.36 311.483 1289.47 320.46C1282.53 327.411 1273.78 333.613 1263.24 339.071L1263.22 339.083C1252.61 344.211 1241.27 346.774 1229.21 346.774C1211.37 346.773 1198.71 341.839 1191.59 331.706L1191.58 331.694C1184.57 321.348 1181.12 307.03 1181.12 288.843C1181.12 284.934 1181.36 280.997 1181.84 277.043C1179.71 279.686 1177.56 282.048 1175.38 284.118C1168.35 291.154 1159.98 294.689 1150.34 294.689C1145.06 294.689 1139.99 292.99 1135.16 289.639L1135.09 289.591C1131.03 286.202 1127.61 281.454 1124.83 275.416C1116.66 292.045 1106.81 306.337 1095.25 318.267C1079.29 335.343 1063.7 344.061 1048.51 344.061C1037.1 344.06 1028.39 340.454 1022.57 333.117C1016.78 325.819 1013.96 314.983 1013.96 300.777C1013.96 293.826 1014.86 286.245 1016.65 278.043C1014.43 281.808 1012.16 285.573 1009.84 289.338L1007.04 293.81C1000.33 304.155 992.36 313.937 983.152 323.16C969.392 336.943 957.059 344.06 946.184 344.061C936.64 344.061 929.14 341.666 923.849 336.745L923.825 336.721C918.869 331.755 916.496 323.852 916.496 313.252C916.496 306.457 917.597 299.139 919.762 291.302C909.017 307.952 898.489 320.725 888.182 329.585C876.612 339.531 865.248 344.604 854.107 344.604C844.832 344.604 837.332 341.426 831.711 335.045L831.687 335.021C826.478 328.684 823.889 321.048 823.888 312.167C823.888 304.699 825.906 295.124 829.891 283.48C827.89 285.885 825.859 288.088 823.792 290.073C815.315 298.563 805.316 302.826 793.851 302.826C786.98 302.825 781.423 301.069 777.301 297.45C773.834 303.595 770.04 309.417 765.923 314.916L765.911 314.94C761.539 320.414 756.621 325.349 751.157 329.73C738.756 340.685 725.897 346.231 712.61 346.231C696.391 346.23 683.986 339.183 675.509 325.173L674.798 324.064C668.746 314.398 665.243 303.061 664.263 290.085C659.498 296.712 654.439 302.85 649.075 308.491L649.051 308.515C640.309 317.271 628.499 326.002 613.65 334.708C598.663 343.494 580.248 347.858 558.457 347.858C540.087 347.858 526.128 343.488 516.763 334.575C507.39 325.651 502.782 312.33 502.781 294.81C502.781 284.938 504.429 274.355 507.699 263.073L507.844 263.097C509.728 256.623 513.184 250.35 518.174 244.281C524.337 236.657 530.183 232.529 535.712 232.529H537.339C538.456 232.53 540.137 232.859 542.317 233.457L547.886 224.838L547.898 224.826C552.935 217.258 557.431 209.691 561.386 202.129L561.398 202.117C565.738 194.146 570.255 186.354 574.958 178.745C581.643 167.165 587.543 158.217 592.641 151.925C595.19 148.779 597.557 146.278 599.74 144.44C601.902 142.62 603.939 141.406 605.839 140.896C608.008 140.174 609.753 139.763 610.998 139.763C613.794 139.764 616.07 140.28 617.664 141.451C619.312 142.664 620.087 144.474 620.087 146.706C620.086 149.383 618.935 151.571 616.712 153.191C614.54 154.772 611.381 155.797 607.346 156.349C603.745 156.89 600.83 157.384 598.595 157.832C596.449 158.262 594.983 158.637 594.147 158.953C592.965 159.883 592.003 161.372 591.339 163.533C590.655 165.759 590.302 168.64 590.302 172.2C590.302 175.82 591.471 180.799 593.894 187.182C596.31 193.546 599.942 201.236 604.803 210.253L605.707 211.917C614.9 229.045 619.544 244.385 619.544 257.914C619.544 261.576 619.178 265.074 618.447 268.388C618.083 271.656 617.542 275.1 616.82 278.718V278.742L616.808 278.754C611.897 299.341 602.918 314.884 589.796 325.27C578.57 334.155 564.393 339.207 547.319 340.481C552.234 341.209 556.852 341.578 561.169 341.578C573.682 341.578 585.843 339.425 597.643 335.13C609.466 330.464 620.395 324.185 630.429 316.29C640.828 308.028 650.34 298.136 658.959 286.626L664.01 279.695C664.549 251.901 673.639 226 691.251 202.009L692.191 200.743C712.005 174.623 735.792 161.46 763.524 161.46C777.634 161.46 788.643 166.297 796.418 176.021L796.792 176.491L797.479 177.395C804.402 186.857 807.821 198.718 807.821 212.893C807.821 219.468 807.094 226.218 805.639 233.143C804.546 240.065 802.729 247.346 800.191 254.973L798.13 260.698C793.193 273.691 787.305 284.193 780.447 292.17L781.026 293.026C784.419 295.357 788.497 296.545 793.308 296.546C803.544 296.546 812.157 293.195 819.187 286.505C826.271 279.763 834.322 267.621 843.319 249.97C843.526 249.199 843.852 248.51 844.355 248.005C844.676 247.685 845.046 247.464 845.452 247.33C847.548 242.933 849.786 238.357 852.154 233.613C856.133 225.642 861.2 216.035 867.341 204.817C873.847 193.232 881.611 180.019 890.641 165.184L890.93 164.714H892.871L893.124 164.895C895.478 166.579 898.168 167.426 901.224 167.426C908.491 167.426 916.944 163.779 926.621 156.241L927.308 155.722L929.634 158.061L929.032 158.736C923.697 164.792 914.367 179.709 900.995 203.6L900.983 203.612C896.647 211.211 892.496 218.273 888.52 224.79C884.908 231.3 881.297 237.453 877.683 243.244C867.053 261.473 859.093 277.24 853.793 290.555C848.486 303.89 845.874 314.697 845.874 323.016C845.874 327.766 846.969 331.153 848.996 333.346C851.009 335.522 854.094 336.696 858.434 336.697C863.234 336.697 868.595 334.816 874.525 330.923C880.453 327.032 886.898 321.16 893.859 313.288C907.785 297.54 923.683 273.866 941.543 242.244C946.589 233.218 952.54 222.021 959.395 208.65C966.255 195.269 974.198 179.711 983.225 161.99L983.502 161.46H985.37L985.563 161.544C988.069 162.62 990.395 163.519 992.53 164.232C994.599 164.922 996.66 165.256 998.713 165.257C1002.53 165.257 1005.73 164.39 1008.34 162.701C1010.96 161.013 1013.06 158.465 1014.62 154.987L1014.99 154.179L1018.52 155.361L975.751 238.29L967 255.358C958.832 271.604 952.411 285.369 947.751 296.666C941.518 311.777 938.482 322.328 938.482 328.44C938.482 331.555 939.221 333.714 940.519 335.093C941.809 336.462 943.822 337.239 946.726 337.239C950.807 337.238 955.865 335.525 961.938 331.947L961.95 331.935C968.324 328.389 974.921 322.861 981.73 315.325C990.375 305.223 997.759 295.666 1003.87 286.662L1006.34 282.997C1012.2 274.097 1018.76 262.696 1026.01 248.789L1026.03 248.765L1026.05 248.741C1026.34 248.252 1026.65 247.794 1026.98 247.391C1029.73 241.154 1033.19 233.668 1037.35 224.947L1043.78 212.242C1050.69 198.805 1059.03 183.128 1068.78 165.221L1069.06 164.714H1071L1071.23 164.871C1073.97 166.586 1076.86 167.425 1079.92 167.426C1088.31 167.426 1097.32 163.928 1106.97 156.771L1107.89 156.084L1109.27 158.832L1108.77 159.326C1103.81 164.303 1096.99 173.753 1088.33 187.761C1079.68 201.749 1069.23 220.221 1056.96 243.172C1042.56 270.931 1035.4 296.095 1035.4 318.676C1035.4 325.291 1036.47 330.087 1038.49 333.201C1040.46 336.241 1043.39 337.78 1047.42 337.781C1058.08 337.781 1069.73 332.037 1082.38 320.267C1094.93 308.589 1108.36 291.062 1122.67 267.653C1118.77 260.549 1116.86 249.848 1116.86 235.675C1116.86 231.308 1117.04 226.939 1117.4 222.572L1117.42 222.536V222.512C1118.14 217.814 1118.87 213.107 1119.59 208.409C1120.69 199.978 1123.42 191.02 1127.78 181.553C1130.51 175.195 1133.3 170.348 1136.2 167.077C1139.09 163.804 1142.18 162.005 1145.45 162.002C1149.23 162.002 1152.14 163.684 1154.02 166.968C1155.86 170.171 1156.72 174.851 1156.72 180.878C1156.72 202.042 1147.3 230.699 1128.6 266.761C1129.35 271.167 1131.59 275.973 1135.4 281.189C1139.59 286.426 1144.38 288.952 1149.79 288.952C1162.14 288.952 1173.76 280.488 1184.54 263.036C1189.32 244.773 1199.09 226.043 1213.82 206.866L1218.18 201.454C1240.06 175.268 1262.87 162.003 1286.62 162.002C1295.91 162.002 1303.06 163.593 1307.9 166.92C1312.8 170.292 1315.22 175.366 1315.22 181.963C1315.22 197.881 1306.53 214.386 1289.48 231.468C1265.36 255.985 1239.9 268.449 1213.1 268.653C1208.96 279.554 1206.9 290.442 1206.9 301.319C1206.9 313.507 1209.23 322.875 1213.77 329.525C1218.27 336.102 1224.82 339.409 1233.55 339.409C1242.75 339.408 1252.34 336.924 1262.34 331.923C1272.37 326.539 1280.96 320.265 1288.11 313.108C1294.2 307.009 1301.02 298.729 1308.59 288.265L1311.55 284.106C1318.47 274.142 1325.41 262.369 1332.34 248.789L1332.37 248.741C1332.44 248.613 1332.53 248.478 1332.61 248.355C1333.72 245.672 1334.84 242.955 1335.97 240.207L1337.21 237C1340.17 229.299 1343.55 220.066 1347.34 209.313L1347.35 209.289C1352.04 197.001 1357.27 182.72 1363.04 166.45L1363.27 165.799H1365.38L1365.65 166.016C1369.21 168.872 1372.07 170.139 1374.25 170.139C1382.67 170.138 1390.91 162.87 1398.84 147.345L1400.69 147.791V148.333C1400.69 148.499 1400.64 148.66 1400.63 148.707C1400.61 148.79 1400.58 148.884 1400.54 148.984C1400.48 149.193 1400.38 149.476 1400.25 149.816C1400 150.499 1399.62 151.466 1399.12 152.721C1398.13 155.235 1396.63 158.914 1394.65 163.75C1390.68 173.428 1384.72 187.77 1376.77 206.758C1368.11 227.369 1361.61 243.095 1357.28 253.936C1356.74 255.294 1356.23 256.581 1355.74 257.793C1373.25 227.49 1389.19 204.202 1403.58 187.966C1420.03 169.409 1434.64 159.833 1447.37 159.833C1453.03 159.833 1458.12 161.73 1462.62 165.486C1467.18 169.292 1469.46 174.271 1469.47 180.336C1469.47 188.121 1466.84 198.302 1461.68 210.82C1456.51 223.355 1448.77 238.316 1438.46 255.696C1428.18 273.038 1420.48 287.61 1415.36 299.402C1410.22 311.223 1407.73 320.153 1407.73 326.27C1407.73 330.679 1409.4 333.987 1412.73 336.323C1416.15 338.723 1420.28 339.951 1425.17 339.951C1430.08 339.951 1435.2 338.887 1440.51 336.757C1445.87 334.611 1450.3 332.297 1453.83 329.826C1463.49 322.298 1471.72 313.521 1478.52 303.489C1485.36 293.395 1491.3 283.295 1496.33 273.21C1498.45 268.973 1500.47 265.019 1502.4 261.349C1504.55 255.964 1507.08 250.514 1509.98 244.992L1550.86 164.714H1553.56L1553.85 165.112C1554.65 166.173 1556.4 166.884 1559.58 166.884C1566.1 166.884 1574.91 162.902 1586.08 154.601L1586.76 154.107L1587.35 154.698L1588.93 156.289L1542.57 246.426L1535.84 259.722C1529.58 272.479 1524.66 283.654 1521.09 293.243C1516.32 306.052 1513.97 315.96 1513.97 323.016C1513.97 329.365 1515.73 333.506 1518.97 335.781C1522.41 338.19 1526.37 339.409 1530.88 339.409C1535.79 339.408 1540.52 338.35 1545.09 336.239L1545.11 336.227C1550.11 334.081 1554.37 331.763 1557.91 329.284C1567.58 321.753 1575.62 313.156 1582.06 303.489L1587.02 295.919C1591.82 288.349 1596.1 280.775 1599.87 273.21C1604.93 263.077 1609.45 254.56 1613.43 247.668L1613.45 247.656C1613.82 247.033 1614.23 246.48 1614.69 246.065C1615.4 244.673 1616.13 243.234 1616.87 241.75C1620.46 234.192 1623.88 225.904 1627.11 216.895L1629.2 210.892C1631.22 204.812 1633.05 198.529 1634.67 192.04V192.016C1637.05 183.5 1638.45 177.61 1638.9 174.309C1630.29 168.695 1625.97 160.356 1625.97 149.418C1625.97 143.186 1627.07 138.339 1629.4 135.026C1631.78 131.653 1635.35 130.001 1639.94 130ZM1295.17 347.967C1294.09 350.273 1293.03 352.231 1292 353.825L1293.05 352.113C1293.75 350.892 1294.45 349.505 1295.17 347.967ZM1546.03 342.543C1540.97 344.713 1535.56 345.785 1529.78 345.785L1529.79 345.797C1535.57 345.797 1540.98 344.712 1546.03 342.543ZM1423.69 345.797H1424.63C1423.75 345.797 1422.87 345.754 1422.02 345.713C1422.57 345.739 1423.13 345.788 1423.69 345.797ZM1227.57 345.785H1229.19C1228.44 345.785 1227.7 345.779 1226.97 345.761C1227.17 345.766 1227.37 345.782 1227.57 345.785ZM1528.68 345.785H1529.78C1528.97 345.785 1528.17 345.743 1527.38 345.713C1527.81 345.73 1528.25 345.777 1528.68 345.785ZM913.868 298.354C892.976 328.538 873.052 343.628 854.095 343.628C854.772 343.627 855.464 343.618 856.144 343.579C874.489 342.538 893.724 327.455 913.868 298.354ZM853.263 343.628H854.095C853.221 343.627 852.367 343.565 851.527 343.507C852.099 343.546 852.676 343.615 853.263 343.628ZM743.575 334.515C738.148 338.37 732.651 341.184 727.086 342.965C733.447 340.931 739.721 337.547 745.902 332.803L743.575 334.515ZM1009 288.843C1001.77 300.775 992.934 311.987 982.465 322.473C968.744 336.217 956.643 343.073 946.172 343.073L946.184 343.085C956.654 343.083 968.747 336.214 982.465 322.473C992.934 311.987 1001.77 300.775 1009 288.843ZM1069.53 337.54C1062.4 341.226 1055.4 343.084 1048.51 343.085C1047.69 343.085 1046.89 343.026 1046.11 342.989C1046.56 343.01 1047.01 343.064 1047.47 343.073L1048.51 343.085C1051.28 343.085 1054.08 342.791 1056.9 342.193C1058.77 341.794 1060.66 341.266 1062.55 340.602C1064.87 339.789 1067.18 338.752 1069.53 337.54ZM544.499 341.024C545.369 341.173 546.237 341.271 547.09 341.398C544.294 340.981 541.394 340.48 538.412 339.831L544.499 341.024ZM1416.53 339.433C1418.08 340.027 1419.74 340.449 1421.5 340.686L1419.78 340.385C1418.09 340.029 1416.5 339.494 1415.01 338.782L1416.53 339.433ZM771.106 171.006C754.215 171.007 738.041 181.223 722.602 202.081C710.043 218.614 701.059 237.13 695.675 257.624V257.648C692.452 268.766 690.841 280.432 690.841 292.64C690.841 308.674 693.045 320.548 697.35 328.38C699.494 332.28 702.148 335.162 705.293 337.07C708.438 338.977 712.136 339.951 716.407 339.951C734.962 339.95 753.437 325.765 771.769 296.678C771.846 295.579 772.349 294.546 773.155 293.593C766.838 282.862 763.633 272.591 763.633 262.795V260.626C763.633 259.116 763.826 257.26 764.187 255.081C764.554 251.056 765.286 247.035 766.381 243.015C767.493 238.57 769.345 234.49 771.937 230.781C777.457 221.955 784.218 217.341 792.236 217.341H797.226L797.346 217.365C798.775 217.723 799.764 217.883 800.36 217.883H800.999C800.897 202.173 798.34 190.508 793.441 182.759C788.488 174.926 781.09 171.006 771.106 171.006ZM1288.78 319.761C1281.92 326.633 1273.25 332.779 1262.78 338.203C1261.88 338.638 1260.97 339.035 1260.06 339.433C1260.64 339.179 1261.23 338.942 1261.81 338.673L1262.78 338.203C1273.25 332.779 1281.92 326.633 1288.78 319.761C1290.23 318.45 1291.64 317.13 1293.01 315.808L1288.78 319.761ZM1049.51 338.673C1048.81 338.72 1048.11 338.746 1047.42 338.746C1048.8 338.746 1050.19 338.654 1051.59 338.469L1049.51 338.673ZM942.483 337.516C939.946 336.544 938.412 334.536 937.819 331.501C938.362 334.281 939.682 336.202 941.857 337.251L942.483 337.516ZM863.762 336.95C861.929 337.408 860.154 337.661 858.434 337.661L860.35 337.577C861.467 337.47 862.6 337.241 863.762 336.95ZM1409.2 334.262C1409.99 335.329 1410.98 336.286 1412.16 337.119L1410.93 336.154C1410.27 335.573 1409.7 334.937 1409.2 334.262ZM1398.63 336.648C1398.66 336.679 1398.69 336.703 1398.72 336.733C1398.68 336.691 1398.63 336.655 1398.59 336.612L1398.63 336.648ZM1518.4 336.576C1518.43 336.597 1518.47 336.616 1518.5 336.636L1518.4 336.576ZM1561.19 334.406C1560.24 335.065 1559.27 335.685 1558.29 336.299C1558.97 335.874 1559.65 335.456 1560.31 335.009L1561.19 334.406ZM1457.65 334.406C1456.79 335.006 1455.89 335.567 1454.99 336.13C1455.59 335.757 1456.19 335.399 1456.77 335.009L1457.65 334.406ZM613.156 333.864C612.479 334.261 611.786 334.642 611.095 335.021C611.552 334.771 612.018 334.532 612.469 334.274L613.156 333.864ZM584.384 173.381C578.185 185.575 571.989 196.751 565.785 206.89C559.05 217.898 552.652 227.86 546.608 236.783C548.277 239.628 549.139 242.518 549.139 245.438C549.139 250.754 547.058 256.545 543.028 262.783L543.016 262.795L543.004 262.819C540.351 266.613 535.862 270.138 529.661 273.427C523.591 276.646 519.396 279.636 516.98 282.383C513.174 287.955 511.231 295.328 511.231 304.574C511.231 314.778 513.244 322.254 517.113 327.162C520.947 332.025 526.724 334.527 534.627 334.527C552.435 334.526 567.354 321.071 579.225 293.327C588.922 271.744 593.773 249.994 593.774 228.081C593.774 225.294 593.246 221.577 592.171 216.907L592.158 216.859V216.823C591.443 211.808 590.185 205.879 588.386 199.031V199.007L588.374 198.995C586.926 192.472 585.846 186.837 585.119 182.108L584.589 177.54C584.468 176.088 584.4 174.698 584.384 173.381ZM1685.97 258.456C1679.83 267.498 1672.98 277.813 1665.4 289.386C1658.18 300.597 1654.56 312.166 1654.56 324.101C1654.56 322.608 1654.63 321.122 1654.74 319.641C1654.85 318.16 1655.02 316.686 1655.25 315.217C1656.6 306.403 1659.98 297.793 1665.4 289.386C1672.98 277.813 1679.83 267.498 1685.97 258.456ZM750.518 328.982C749.751 329.66 748.986 330.323 748.216 330.959L750.518 328.982ZM1212.41 267.677C1208.08 278.889 1205.91 290.107 1205.91 301.319C1205.91 313.612 1208.26 323.196 1212.95 330.067C1212.99 330.116 1213.03 330.164 1213.06 330.212L1212.95 330.067C1208.26 323.196 1205.91 313.612 1205.91 301.319C1205.91 297.113 1206.23 292.905 1206.84 288.699C1207.05 287.3 1207.28 285.903 1207.55 284.504C1208.64 278.897 1210.24 273.284 1212.41 267.677ZM517.957 329.573C518.15 329.763 518.371 329.922 518.571 330.103C518.354 329.907 518.117 329.732 517.908 329.525L517.957 329.573ZM1191.17 329.272C1191.21 329.329 1191.25 329.383 1191.28 329.44C1191.23 329.363 1191.18 329.289 1191.14 329.211L1191.17 329.272ZM974.871 237.844C949.959 285.58 937.507 315.781 937.505 328.44C937.505 327.648 937.565 326.789 937.662 325.86C938.344 319.362 941.408 309.506 946.859 296.293C949.973 288.745 953.869 280.104 958.539 270.365C963.21 260.622 968.642 249.78 974.871 237.844ZM514.172 324.342C514.823 325.581 515.527 326.732 516.342 327.765L514.955 325.776C514.673 325.319 514.429 324.831 514.172 324.342ZM844.886 323.016C844.886 323.202 844.907 323.387 844.91 323.57L844.886 323.016C844.886 321.953 844.935 320.852 845.018 319.713L844.886 323.016ZM1524.2 282.756C1516.73 300.554 1512.99 313.975 1512.99 323.016C1512.99 321.206 1513.15 319.222 1513.45 317.061C1514.65 308.428 1518.22 296.991 1524.2 282.756ZM1034.75 310.01C1034.53 312.938 1034.42 315.827 1034.42 318.676C1034.42 318.94 1034.44 319.201 1034.44 319.46L1034.42 318.676C1034.42 314.406 1034.68 310.046 1035.19 305.598L1034.75 310.01ZM1717.38 315.964C1716.76 316.585 1716.13 317.185 1715.52 317.784C1715.86 317.45 1716.22 317.125 1716.56 316.784L1717.38 315.964ZM777.06 295.895C773.45 302.404 769.472 308.551 765.139 314.337C764.317 315.366 763.457 316.36 762.596 317.35C763.175 316.685 763.77 316.033 764.332 315.35L765.139 314.337C766.223 312.89 767.295 311.418 768.333 309.925C771.446 305.452 774.354 300.774 777.06 295.895ZM917.484 314.229C917.489 314.561 917.523 314.89 917.533 315.217C917.514 314.573 917.472 313.919 917.472 313.252L917.484 314.229ZM1390.51 313.746C1390.52 313.943 1390.55 314.142 1390.55 314.337C1390.54 313.872 1390.5 313.402 1390.5 312.927L1390.51 313.746ZM859.989 274.114C855.413 283.62 851.89 292.177 849.394 299.776C850.393 296.735 851.557 293.54 852.889 290.193C853.555 288.52 854.261 286.808 855.011 285.059C857.257 279.813 859.875 274.223 862.87 268.292L859.989 274.114ZM1316.41 287.216C1311.26 295.624 1304.8 303.829 1297.02 311.83L1300.8 307.804C1306.92 301.08 1312.12 294.222 1316.41 287.216C1317.38 285.713 1318.34 284.195 1319.29 282.672C1319.32 282.592 1319.35 282.511 1319.39 282.431C1318.39 284.028 1317.42 285.64 1316.41 287.216ZM648.352 307.828C647.546 308.635 646.704 309.432 645.845 310.239C646.418 309.7 646.995 309.174 647.545 308.636L648.352 307.828ZM1494.05 307.43C1494.06 307.677 1494.09 307.921 1494.09 308.166C1494.08 307.593 1494.04 307.015 1494.04 306.43L1494.05 307.43ZM1014.93 300.777L1014.94 302.09C1014.94 302.553 1014.99 303.01 1015 303.465C1014.97 302.583 1014.93 301.688 1014.93 300.777ZM805.832 300.102C802.041 301.272 798.048 301.861 793.851 301.861C793.37 301.861 792.895 301.819 792.429 301.801C792.678 301.811 792.934 301.845 793.188 301.849L793.851 301.861C798.746 301.861 803.37 301.066 807.712 299.475L805.832 300.102ZM1053.46 247.921C1044.15 266.848 1038.26 284.58 1035.78 301.114L1036.55 296.57C1039.37 281.343 1045 265.125 1053.46 247.921ZM1490.69 296.437C1489.84 298.009 1488.93 299.533 1488.03 301.042C1488.65 300.009 1489.29 298.982 1489.88 297.92L1490.69 296.437C1492.45 293.207 1494.19 289.983 1495.89 286.782C1495.89 286.758 1495.89 286.734 1495.9 286.71C1494.19 289.933 1492.46 293.184 1490.69 296.437ZM1594.23 296.437C1593.38 298.009 1592.47 299.533 1591.57 301.042C1592.19 300.009 1592.83 298.982 1593.42 297.92L1594.23 296.437ZM1163.46 291.146C1159.4 292.863 1155.03 293.724 1150.34 293.725C1156.2 293.725 1161.57 292.381 1166.45 289.699L1163.46 291.146ZM689.853 292.64C689.853 292.967 689.875 293.293 689.877 293.617L689.853 292.64ZM1182.11 290.519C1182.11 291.032 1182.16 291.544 1182.17 292.05C1182.15 291.116 1182.1 290.173 1182.1 289.217L1182.11 290.519ZM664.287 288.349C664.542 287.988 664.817 287.64 665.071 287.276C665.072 287.305 665.081 287.333 665.083 287.361C665.08 287.301 665.073 287.24 665.071 287.18C664.802 287.566 664.558 287.967 664.287 288.349ZM1174.7 283.419C1172.98 285.135 1171.19 286.64 1169.32 287.927L1172.08 285.83C1172.98 285.08 1173.84 284.276 1174.7 283.419ZM1769.92 240.014C1769.92 241.822 1769.38 243.811 1768.3 245.98C1762.16 258.639 1754.76 270.942 1746.1 282.877C1745.42 283.783 1744.72 284.678 1744.03 285.577C1744.17 285.394 1744.33 285.218 1744.47 285.034L1746.1 282.877C1753.68 272.432 1760.3 261.704 1765.95 250.705C1766.75 249.138 1767.53 247.56 1768.3 245.98C1768.84 244.895 1769.26 243.853 1769.53 242.859C1769.8 241.865 1769.92 240.917 1769.92 240.014ZM1127.58 266.592C1128.3 271.294 1130.65 276.367 1134.62 281.792C1132.14 278.402 1130.3 275.148 1129.08 272.041C1128.84 271.416 1128.63 270.797 1128.43 270.184C1128.05 268.965 1127.76 267.766 1127.58 266.592ZM617.483 268.22C617.122 271.475 616.578 274.921 615.856 278.538C615.587 279.666 615.306 280.779 615.012 281.876C615.223 281.088 615.44 280.294 615.639 279.49L615.868 278.525C616.589 274.911 617.122 271.473 617.483 268.22ZM832.76 278.212C832.838 278.106 832.923 278.005 833.001 277.899C832.77 278.477 832.549 279.054 832.326 279.622C832.574 278.991 832.841 278.36 833.097 277.718C832.98 277.88 832.878 278.052 832.76 278.212ZM1182.93 274.054C1183.05 273.887 1183.19 273.727 1183.31 273.559C1183.32 273.539 1183.32 273.519 1183.33 273.499C1183.19 273.682 1183.06 273.873 1182.93 274.054ZM529.203 272.559C529.103 272.612 529 272.663 528.901 272.716L529.203 272.559ZM1348.79 272.016C1348.81 271.972 1348.83 271.928 1348.86 271.884C1349.24 271.082 1350.03 269.251 1351.21 266.387C1349.96 269.423 1349.14 271.296 1348.79 272.016ZM1587.74 156.47L1541.7 245.98C1536.92 255.202 1532.73 263.726 1529.14 271.546L1534.98 259.288C1537.07 255.027 1539.31 250.591 1541.7 245.98L1587.74 156.47ZM539.967 264.941C538.812 266.127 537.443 267.279 535.88 268.424C537.449 267.275 538.821 266.119 539.979 264.929L539.967 264.941ZM1356.37 253.574C1354.47 258.33 1352.92 262.185 1351.71 265.134C1352.23 263.866 1352.83 262.433 1353.47 260.831L1356.37 253.574ZM764.621 263.711C764.625 263.883 764.652 264.058 764.657 264.23C764.644 263.811 764.611 263.393 764.609 262.976L764.621 263.711ZM508.615 263.374V263.88C508.62 263.864 508.623 263.848 508.627 263.832V263.338L508.615 263.374ZM1216.74 254.406C1215.32 257.645 1214.03 260.791 1212.95 263.88L1212.97 263.868C1214.04 260.784 1215.32 257.64 1216.74 254.406ZM544.812 257.745C544.067 259.215 543.19 260.715 542.196 262.253C543.156 260.767 544.012 259.312 544.74 257.89L544.812 257.745ZM1296.92 171.006C1290.35 171.007 1282.97 173.953 1274.75 180.035C1266.54 186.113 1257.57 195.269 1247.85 207.529L1247.84 207.541C1238.84 218.36 1231.64 228.441 1226.26 237.784C1221.15 246.651 1217.19 255.023 1214.35 262.892C1233.43 262.411 1254.84 252.013 1278.61 231.432V230.877L1278.96 230.588C1285.72 224.887 1292.16 217.025 1298.26 206.963L1298.27 206.938C1305.45 195.789 1308.95 186.391 1308.95 178.709C1308.95 176.1 1307.99 174.251 1306.13 173.007C1304.2 171.717 1301.17 171.007 1296.92 171.006ZM1275.04 243.329C1263.99 252.278 1252.69 258.743 1241.13 262.759C1254.3 258.183 1267.15 250.42 1279.66 239.435L1275.04 243.329ZM616.507 241.617C617.877 247.329 618.568 252.761 618.568 257.914C618.568 259.486 618.487 261.026 618.351 262.53C618.468 261.242 618.551 259.927 618.568 258.589V257.914C618.568 257.057 618.558 256.194 618.52 255.322C618.482 254.446 618.427 253.562 618.351 252.67C617.97 248.219 617.105 243.576 615.771 238.736L616.507 241.617ZM1617.06 252.827C1615.9 255.011 1614.66 257.224 1613.36 259.469C1613.19 259.815 1613.04 260.17 1612.87 260.517C1613.05 260.143 1613.24 259.77 1613.42 259.396C1614.71 257.179 1615.91 254.985 1617.06 252.827ZM1437.61 255.202C1437.31 255.703 1437.03 256.212 1436.74 256.708L1437.61 255.202ZM1333.21 249.223C1333.27 249.134 1333.33 249.054 1333.38 248.97C1333.39 248.941 1333.41 248.914 1333.42 248.885C1333.35 248.993 1333.28 249.107 1333.21 249.223ZM846.127 248.162C846.065 248.17 846.006 248.198 845.946 248.21C846.006 248.198 846.065 248.193 846.127 248.186V248.162ZM548.091 246.872C548.114 246.552 548.155 246.236 548.163 245.92V245.438L548.091 246.872ZM545.451 236.759C546.805 238.929 547.656 241.099 547.994 243.268L547.488 241.099C547.037 239.653 546.353 238.205 545.451 236.759ZM851.358 237.41C850.716 238.711 850.099 240.006 849.478 241.279C850.374 239.443 851.274 237.568 852.214 235.675L851.358 237.41ZM1416.74 240.315C1416.62 240.527 1416.5 240.743 1416.37 240.954C1416.61 240.558 1416.84 240.158 1417.08 239.761L1416.74 240.315ZM1768 238.652C1767.89 238.719 1767.81 238.837 1767.7 238.929C1767.96 238.714 1768.18 238.537 1768.43 238.459L1768 238.652ZM1768.84 238.387C1768.96 238.387 1769.07 238.415 1769.18 238.447C1769.12 238.428 1769.05 238.394 1768.98 238.387H1768.84ZM796.008 177.081C803.23 186.485 806.845 198.426 806.845 212.893C806.844 219.402 806.119 226.092 804.675 232.962C804.404 234.679 804.096 236.42 803.735 238.182L804.675 232.962C805.036 231.244 805.368 229.536 805.639 227.84C805.91 226.145 806.134 224.461 806.314 222.789C806.675 219.445 806.844 216.146 806.845 212.893C806.845 211.083 806.801 209.308 806.688 207.577C805.897 195.475 802.326 185.308 796.008 177.081ZM1225.42 237.302C1225.36 237.404 1225.31 237.513 1225.25 237.615L1225.42 237.302ZM542.739 234.59L541.835 234.337C541.333 234.201 540.86 234.101 540.425 233.999C541.112 234.161 541.887 234.346 542.739 234.59ZM772.263 232.022C772.086 232.288 771.938 232.572 771.769 232.842C772.059 232.379 772.336 231.907 772.649 231.456L772.263 232.022ZM1630.79 222.452C1630 224.471 1629.07 226.696 1628.03 229.129C1629.65 225.345 1630.99 222.065 1632.01 219.281L1632.36 218.317L1630.79 222.452ZM1118.25 224.284C1118.21 224.806 1118.2 225.329 1118.16 225.851C1118.23 224.863 1118.28 223.874 1118.36 222.886L1118.25 224.284ZM1681.05 219.981C1679.59 221.923 1678.2 223.815 1676.84 225.634C1678.75 223.067 1680.76 220.37 1682.89 217.558L1681.05 219.981ZM791.525 218.329C791.416 218.333 791.307 218.336 791.199 218.341C791.534 218.324 791.872 218.317 792.212 218.317L791.525 218.329ZM758.269 171.995C745.609 175.928 733.451 185.77 721.807 201.502C718.387 206.004 715.235 210.655 712.345 215.448C714.904 211.205 717.676 207.072 720.65 203.057L721.807 201.502C727.629 193.636 733.594 187.241 739.67 182.325C740.684 181.505 741.699 180.724 742.72 179.986C747.815 176.302 752.997 173.634 758.269 171.995ZM564.954 206.384C563.804 208.262 562.647 210.099 561.518 211.917C561.806 211.454 562.109 210.997 562.398 210.53L564.954 206.384ZM1257.74 194.391C1256.6 195.637 1255.43 196.929 1254.26 198.272L1257.74 194.391C1258.89 193.143 1260.04 191.938 1261.17 190.787L1257.74 194.391ZM1676.22 172.875C1672.43 172.965 1668.46 173.104 1664.31 173.285C1656.37 173.646 1649.86 174.008 1644.81 174.369C1647.34 174.189 1650.24 174.008 1653.49 173.827C1656.73 173.646 1660.34 173.465 1664.31 173.285C1672.61 172.923 1680.2 172.742 1687.06 172.742L1676.22 172.875ZM1269.68 182.843C1267.99 184.271 1266.26 185.805 1264.52 187.472L1267.81 184.446C1268.43 183.893 1269.06 183.365 1269.68 182.843ZM1720.02 171.079C1725.85 173.837 1728.76 178.371 1728.76 184.675C1728.76 185.175 1728.7 185.698 1728.65 186.242C1728.68 185.901 1728.75 185.566 1728.76 185.242V184.675C1728.76 179.773 1727 175.946 1723.48 173.188C1722.98 172.794 1722.44 172.418 1721.87 172.067C1720.71 171.365 1719.42 170.749 1717.97 170.223L1720.02 171.079ZM1155.75 180.878C1155.75 181.908 1155.7 182.958 1155.65 184.024C1155.68 183.298 1155.74 182.577 1155.75 181.867V180.878ZM1468.49 180.336C1468.49 180.999 1468.44 181.684 1468.4 182.385C1468.43 181.935 1468.48 181.494 1468.49 181.059V180.336ZM591.013 161.605C589.902 164.109 589.343 167.572 589.326 171.995C589.333 170.265 589.429 168.682 589.603 167.246C589.693 166.503 589.806 165.8 589.941 165.136C590.347 163.134 590.948 161.484 591.761 160.194L591.013 161.605ZM1645.35 170.03L1645.36 170.018C1646.17 166.226 1646.89 162.837 1647.5 159.857L1648.06 157.012L1645.35 170.03ZM1701.14 167.86C1706.89 167.86 1711.75 168.405 1715.71 169.5L1713.24 168.909C1709.78 168.208 1705.74 167.86 1701.14 167.86ZM928.296 158.097C926.266 160.402 923.681 163.956 920.534 168.752L923.499 164.365C925.349 161.721 926.943 159.633 928.296 158.097ZM1077.51 168.234L1079.92 168.403C1078.29 168.402 1076.71 168.18 1075.18 167.728L1077.51 168.234ZM1461.99 166.233C1462.38 166.561 1462.74 166.912 1463.1 167.258C1462.87 167.032 1462.64 166.788 1462.39 166.571L1461.99 166.233ZM994.531 165.775C995.384 165.958 996.233 166.102 997.086 166.173L998.713 166.233C997.319 166.233 995.926 166.075 994.531 165.775ZM992.204 165.148C992.231 165.157 992.263 165.164 992.289 165.172L992.204 165.148ZM1146.37 163.027C1146.18 163.011 1145.98 162.984 1145.78 162.979H1145.45L1146.37 163.027ZM1286.61 162.979C1287.44 162.979 1288.26 163.001 1289.05 163.027C1288.53 163.01 1288.01 162.984 1287.48 162.979H1286.61ZM763.512 162.436C764.263 162.436 765.009 162.457 765.742 162.484C765.442 162.473 765.141 162.455 764.838 162.448L763.512 162.436ZM1447.36 160.809C1447.89 160.809 1448.41 160.835 1448.93 160.869C1448.58 160.846 1448.23 160.816 1447.88 160.809H1447.36ZM607.189 155.385C599.97 156.47 595.458 157.374 593.653 158.097C593.293 158.367 592.956 158.676 592.641 159.025L593.653 158.097C594.556 157.735 596.148 157.331 598.402 156.879C599.531 156.653 600.829 156.417 602.296 156.168C603.762 155.92 605.385 155.656 607.189 155.385ZM1108.08 158.639C1108.05 158.669 1108.02 158.705 1107.99 158.736L1108.08 158.639ZM1399.7 147.803V148.333L1399.71 147.791L1399.7 147.803ZM619.11 146.706C619.11 148.111 618.747 149.349 618.037 150.431C618.674 149.461 619.044 148.37 619.11 147.14V146.706ZM1649.1 149.153C1649.11 148.853 1649.14 148.56 1649.15 148.273V147.791L1649.1 149.153ZM603.392 142.994C602.91 143.275 602.418 143.604 601.91 143.97C602.413 143.608 602.902 143.285 603.38 143.006L603.392 142.994ZM1641.05 131.036C1645.73 131.604 1648.38 135.876 1649 143.849L1648.58 140.426C1648.49 139.902 1648.38 139.4 1648.26 138.919C1648.14 138.44 1648 137.982 1647.86 137.545C1646.56 133.601 1644.29 131.431 1641.05 131.036ZM610.986 140.74C611.541 140.74 612.067 140.77 612.565 140.812C612.221 140.783 611.864 140.748 611.492 140.74H610.986ZM1019.13 271.836C1019.14 271.803 1019.16 271.772 1019.17 271.739C1017.77 274.16 1016.37 276.587 1014.94 279.008C1016.36 276.616 1017.75 274.227 1019.13 271.836Z" fill="black"/>
<path fill-rule="evenodd" clip-rule="evenodd" d="M2257.32 72.9254L2208.83 154.408H2244.9L2246 155.529V159.579L2244.35 161.243H2204.97L2168.43 225.851L2164.43 232.999C2145.09 268.202 2135.51 295.471 2135.51 314.879C2135.51 322.192 2136.95 327.497 2139.64 330.959C2142.31 334.375 2146.33 336.142 2151.88 336.142C2169.54 336.141 2187.53 326.243 2205.85 306.092L2205.87 306.08C2210.86 300.72 2216.79 292.634 2223.63 281.804C2227.51 275.679 2231.03 269.726 2234.2 263.953C2238.89 245.399 2248.76 226.364 2263.74 206.866C2286.93 177.1 2311.19 162.004 2336.53 162.002C2345.82 162.002 2352.96 163.593 2357.8 166.92C2362.71 170.292 2365.13 175.365 2365.13 181.963C2365.13 197.88 2356.44 214.388 2339.4 231.468C2315.28 255.985 2289.8 268.449 2263 268.653C2258.87 279.554 2256.8 290.442 2256.8 301.319C2256.81 313.507 2259.13 322.875 2263.68 329.525C2268.17 336.103 2274.72 339.409 2283.46 339.409C2292.66 339.408 2302.25 336.924 2312.24 331.923C2322.27 326.539 2330.86 320.264 2338.01 313.108C2344.1 307.009 2350.92 298.729 2358.49 288.265L2362.88 282.033C2367.26 275.566 2371.65 268.373 2376.04 260.457L2376.2 260.144C2376.42 259.745 2376.65 259.338 2376.88 258.926C2378.67 255.669 2380.46 252.286 2382.25 248.789L2382.27 248.741C2382.42 248.496 2382.57 248.255 2382.73 248.03C2383.76 246.037 2384.82 243.943 2385.91 241.75C2389.5 234.191 2392.93 225.905 2396.17 216.895C2399.04 208.973 2401.56 200.687 2403.71 192.04L2403.73 192.028C2406.11 183.512 2407.51 177.61 2407.96 174.309C2399.34 168.695 2395.02 160.357 2395.02 149.418C2395.02 143.188 2396.11 138.339 2398.45 135.026C2400.82 131.651 2404.4 130 2408.99 130C2410.68 130 2412.2 130.388 2413.53 131.193C2414.85 131.998 2415.92 133.19 2416.76 134.713C2418.41 137.729 2419.18 142.131 2419.18 147.791C2419.18 150.408 2418.8 153.552 2418.07 157.205C2417.41 160.523 2416.59 164.452 2415.62 168.981C2420.72 168.648 2428.25 168.301 2438.21 167.969C2449.41 167.246 2460.08 166.884 2470.2 166.884C2479.47 166.885 2486.59 168.297 2491.42 171.235C2496.32 174.223 2498.79 178.749 2498.79 184.675C2498.79 187.833 2497.85 191.74 2496.04 196.355C2494.24 200.983 2491.54 206.394 2487.96 212.568C2480.8 224.911 2470.07 240.405 2455.81 259.035C2449.68 268.06 2442.84 278.352 2435.27 289.904C2428.14 300.978 2424.59 312.374 2424.59 324.101C2424.59 327.205 2425.28 330.131 2426.65 332.888C2427.86 335.311 2430.48 336.697 2434.99 336.697C2450.13 336.696 2467.04 327.51 2485.75 308.768C2495.1 299.401 2503.74 289.311 2511.65 278.501C2516.61 271.725 2521.3 264.447 2525.7 256.672C2527.38 252.815 2529.25 248.919 2531.31 244.992L2572.2 164.714H2574.91L2575.2 165.112C2575.99 166.172 2577.75 166.884 2580.93 166.884C2587.45 166.883 2596.25 162.9 2607.42 154.601L2608.09 154.107L2608.7 154.698L2610.28 156.289L2563.92 246.426L2557.19 259.722C2550.92 272.481 2546 283.653 2542.43 293.243C2537.65 306.052 2535.31 315.96 2535.31 323.016C2535.31 329.367 2537.07 333.506 2540.32 335.781C2543.75 338.189 2547.71 339.408 2552.21 339.409C2557.12 339.409 2561.87 338.351 2566.44 336.239L2566.45 336.227C2571.44 334.084 2575.71 331.772 2579.25 329.296C2588.92 321.763 2596.97 313.158 2603.41 303.489L2604.68 301.596C2610.99 292.134 2616.5 282.665 2621.22 273.21C2625.75 264.139 2629.85 256.36 2633.52 249.886C2637.83 233.163 2645.56 217.203 2656.72 202.009L2657.66 200.743C2677.47 174.623 2701.26 161.46 2728.99 161.46C2743.1 161.46 2754.11 166.296 2761.89 176.021L2762.26 176.491L2763.6 178.323C2770.08 187.629 2773.29 199.175 2773.29 212.893C2773.29 219.468 2772.56 226.219 2771.11 233.143C2770.01 240.065 2768.2 247.346 2765.66 254.973L2763.6 260.698C2758.66 273.691 2752.77 284.193 2745.91 292.17L2746.48 293.026C2749.88 295.359 2753.96 296.545 2758.78 296.546C2769.01 296.546 2777.61 293.194 2784.64 286.505C2791.73 279.764 2799.78 267.621 2808.77 249.97C2808.98 249.2 2809.31 248.51 2809.81 248.005C2809.97 247.851 2810.14 247.719 2810.32 247.608C2811.28 245.742 2812.26 243.789 2813.28 241.75C2816.87 234.192 2820.29 225.904 2823.53 216.895C2826.4 208.972 2828.93 200.688 2831.09 192.04L2831.1 192.016C2833.48 183.5 2834.87 177.61 2835.32 174.309C2826.7 168.695 2822.39 160.355 2822.39 149.418C2822.39 143.186 2823.48 138.339 2825.82 135.026C2828.2 131.651 2831.77 130 2836.36 130C2838.05 130 2839.57 130.388 2840.9 131.193C2842.22 131.998 2843.28 133.19 2844.12 134.713C2845.77 137.729 2846.54 142.129 2846.54 147.791C2846.54 150.408 2846.17 153.552 2845.44 157.205C2844.78 160.523 2843.96 164.452 2842.99 168.981C2848.09 168.648 2855.61 168.301 2865.57 167.969C2876.77 167.246 2887.44 166.884 2897.56 166.884C2906.83 166.884 2913.96 168.295 2918.79 171.235C2923.69 174.223 2926.15 178.749 2926.15 184.675C2926.15 187.833 2925.22 191.74 2923.42 196.355C2921.61 200.983 2918.91 206.394 2915.33 212.568C2908.17 224.911 2897.45 240.404 2883.18 259.035C2877.05 268.062 2870.2 278.35 2862.63 289.904C2855.5 300.978 2851.96 312.374 2851.96 324.101C2851.96 327.206 2852.65 330.13 2854.02 332.888C2855.23 335.31 2857.84 336.695 2862.35 336.697C2877.49 336.697 2894.41 327.513 2913.12 308.768C2921.33 300.543 2928.99 291.755 2936.1 282.419C2936.89 276.218 2938.25 269.769 2940.19 263.073L2940.34 263.097C2942.22 256.624 2945.68 250.349 2950.67 244.281C2956.83 236.657 2962.68 232.53 2968.21 232.529H2969.83C2970.95 232.529 2972.64 232.857 2974.82 233.457L2980.39 224.838L2981.33 223.404C2985.99 216.309 2990.19 209.219 2993.89 202.129C2998.23 194.157 3002.76 186.355 3007.47 178.745C3014.15 167.165 3020.04 158.216 3025.14 151.925C3027.68 148.78 3030.05 146.278 3032.24 144.44C3034.4 142.621 3036.43 141.406 3038.33 140.896C3040.5 140.173 3042.25 139.763 3043.49 139.763C3046.29 139.763 3048.56 140.279 3050.16 141.451C3051.81 142.664 3052.59 144.472 3052.59 146.706C3052.59 149.383 3051.43 151.571 3049.21 153.191C3047.03 154.772 3043.87 155.798 3039.83 156.349C3036.23 156.889 3033.32 157.385 3031.09 157.832C3028.94 158.262 3027.48 158.637 3026.64 158.953C3025.46 159.883 3024.51 161.373 3023.85 163.533C3023.16 165.759 3022.8 168.64 3022.8 172.2C3022.8 175.82 3023.97 180.799 3026.39 187.182C3028.81 193.546 3032.45 201.236 3037.31 210.253C3047.1 228.052 3052.05 243.949 3052.05 257.914C3052.05 261.576 3051.69 265.074 3050.95 268.388C3050.59 271.656 3050.05 275.1 3049.33 278.718L3049.32 278.754C3044.4 299.339 3035.42 314.884 3022.3 325.27C3011.08 334.155 2996.89 339.207 2979.81 340.481C2984.73 341.209 2989.35 341.578 2993.66 341.578C3006.18 341.578 3018.34 339.425 3030.14 335.13C3041.96 330.463 3052.9 324.188 3062.94 316.29C3073.33 308.028 3082.84 298.136 3091.45 286.626C3100.44 274.741 3108.19 262.137 3114.66 248.813C3115.22 247.684 3115.82 246.759 3116.47 246.113C3117.11 245.465 3117.89 245.004 3118.78 245.004C3119.44 245.004 3120.1 245.142 3120.62 245.547C3121.18 245.972 3121.44 246.592 3121.5 247.246C3121.62 248.451 3121.09 250.026 3120.19 251.839L3120.18 251.863C3114.39 262.737 3108.24 273.074 3101.72 282.865C3095.56 292.312 3088.83 300.851 3081.57 308.491L3081.56 308.515C3072.82 317.271 3061.01 326.002 3046.16 334.708C3031.17 343.495 3012.74 347.858 2990.95 347.858C2972.58 347.857 2958.62 343.489 2949.26 334.575C2939.88 325.651 2935.28 312.33 2935.28 294.81C2935.28 294.435 2935.28 294.054 2935.29 293.677C2928.8 301.603 2921.87 309.263 2914.5 316.651C2896.71 334.463 2879.32 343.519 2862.35 343.519C2851.4 343.518 2843 341.092 2837.34 336.082C2831.66 331.05 2828.89 323.56 2828.89 313.795C2828.89 298.357 2834.93 280.815 2846.9 261.204C2850.92 254.26 2861.97 238.845 2880 215.014C2885.94 207.08 2890.37 200.343 2893.32 194.8C2896.28 189.226 2897.67 184.969 2897.67 181.963C2897.67 179.215 2896.58 177.228 2894.35 175.876C2892.05 174.476 2888.47 173.719 2883.48 173.718C2876.64 173.718 2869.07 173.9 2860.77 174.261C2853.22 174.605 2846.98 174.942 2842.05 175.285C2840.97 180.937 2839.37 187.421 2837.29 194.716C2835.12 202.329 2832.59 210.311 2829.7 218.643C2827.88 223.739 2824.98 230.628 2821.01 239.303C2818.14 246.197 2814.48 253.42 2810.04 260.975C2803.51 273.316 2796.58 283.033 2789.24 290.085C2780.76 298.564 2770.78 302.826 2759.32 302.826C2752.45 302.825 2746.89 301.07 2742.77 297.45C2739.3 303.595 2735.51 309.416 2731.39 314.916L2731.38 314.928C2727.01 320.401 2722.09 325.349 2716.62 329.73C2704.22 340.685 2691.36 346.231 2678.08 346.231C2661.86 346.231 2649.45 339.184 2640.98 325.173L2640.27 324.064C2633.04 312.519 2629.44 298.594 2629.44 282.334C2629.44 278.639 2629.6 274.971 2629.9 271.341C2625.63 279.755 2621.13 288.27 2616.44 296.895C2607.71 312.925 2596.6 325.704 2583.11 335.202C2578.35 338.499 2573.22 341.25 2567.74 343.447C2562.56 345.664 2557.02 346.773 2551.13 346.774C2539.04 346.773 2529.8 343.419 2523.6 336.552C2517.42 329.704 2514.41 319.526 2514.41 306.201C2514.41 298.142 2515.4 289.9 2517.35 281.479C2516.89 282.135 2516.41 282.789 2515.93 283.443C2507.24 295.054 2497.64 306.132 2487.14 316.651C2469.35 334.463 2451.97 343.518 2434.99 343.519C2424.04 343.519 2415.63 341.093 2409.97 336.082C2404.29 331.05 2401.52 323.558 2401.52 313.795C2401.52 298.357 2407.58 280.815 2419.54 261.204C2423.56 254.258 2434.61 238.841 2452.63 215.014C2458.57 207.081 2463 200.343 2465.95 194.8C2468.91 189.226 2470.31 184.969 2470.31 181.963C2470.31 179.214 2469.21 177.228 2466.98 175.876C2464.68 174.477 2461.1 173.719 2456.11 173.718C2449.27 173.719 2441.7 173.9 2433.41 174.261C2425.86 174.605 2419.61 174.942 2414.68 175.285C2413.59 180.937 2412.01 187.421 2409.93 194.716C2407.76 202.329 2405.22 210.299 2402.33 218.631C2400.51 223.726 2397.62 230.63 2393.65 239.303C2391.09 245.463 2387.88 251.888 2384.07 258.577C2378.8 268.665 2373.17 278.383 2367.16 287.722C2360.24 299.017 2350.97 309.929 2339.37 320.46C2332.43 327.411 2323.68 333.613 2313.14 339.071L2313.12 339.083C2302.51 344.21 2291.17 346.774 2279.12 346.774C2261.27 346.773 2248.61 341.838 2241.5 331.706L2241.48 331.694C2234.48 321.348 2231.02 307.029 2231.02 288.843C2231.02 286.159 2231.14 283.46 2231.37 280.755C2230.61 282.004 2229.84 283.249 2229.07 284.48C2223.26 294.292 2216.54 303.373 2208.92 311.733C2190.04 332.46 2170.66 342.976 2150.79 342.977C2137.83 342.977 2127.92 339.774 2121.26 333.201C2114.61 326.626 2111.37 316.839 2111.37 304.031C2111.37 300.84 2111.56 297.515 2111.93 294.063C2111.42 295.006 2110.91 295.949 2110.39 296.895C2101.66 312.925 2090.54 325.704 2077.05 335.202C2072.29 338.502 2066.99 341.252 2061.15 343.447C2055.61 345.665 2049.71 346.774 2043.46 346.774C2033.17 346.773 2024.63 344.004 2017.93 338.408L2017.92 338.396C2011.5 332.726 2008.37 324.092 2008.37 312.71C2008.37 292.911 2017.5 268.129 2035.59 238.423C2044.79 223.245 2051.67 210.888 2056.26 201.346C2058.55 196.575 2060.26 192.523 2061.39 189.183C2062.53 185.827 2063.07 183.251 2063.07 181.421C2063.07 178.528 2062.26 176.533 2060.81 175.237C2059.35 173.923 2057.05 173.176 2053.75 173.176H2050.5C2046.88 173.178 2042.41 175.288 2037.04 179.854C2031.71 184.398 2025.62 191.259 2018.78 200.454L2013.52 207.626C2000.91 225.3 1986.08 249.624 1969.03 280.623L1969.01 280.647C1964.34 288.572 1959.47 297.774 1954.43 308.238C1949.74 318.353 1944.69 329.736 1939.28 342.386L1939.15 342.711L1938.82 342.868L1937.3 343.628L1936.87 343.411C1932.61 341.28 1928.98 340.266 1925.93 340.265C1921.74 340.265 1918.02 342.819 1914.87 348.425C1913.42 351.512 1911.99 354.002 1910.59 355.874C1909.19 357.741 1907.77 359.079 1906.27 359.719L1905.43 360.081L1904.48 358.164L1904.27 357.754L1904.47 357.333C1910.85 343.475 1918.15 326.991 1926.37 307.888C1918.87 318.878 1909.99 327.986 1899.74 335.202L1896.1 337.577C1892.4 339.843 1888.49 341.799 1884.37 343.447C1879.2 345.664 1873.66 346.774 1867.76 346.774C1855.67 346.773 1846.43 343.419 1840.23 336.552C1834.05 329.704 1831.05 319.526 1831.05 306.201C1831.05 286.842 1836.7 266.432 1847.95 244.992L1888.83 164.714H1891.55L1891.83 165.112C1892.63 166.172 1894.38 166.884 1897.56 166.884C1904.08 166.883 1912.89 162.9 1924.05 154.601L1924.73 154.107L1925.33 154.698L1926.91 156.289L1880.55 246.426L1873.83 259.722C1867.56 272.481 1862.63 283.653 1859.06 293.243C1854.29 306.052 1851.95 315.96 1851.95 323.016C1851.95 329.366 1853.71 333.506 1856.95 335.781C1860.39 338.189 1864.34 339.408 1868.85 339.409C1873.76 339.409 1878.5 338.351 1883.07 336.239L1883.1 336.227C1888.09 334.082 1892.36 331.763 1895.9 329.284C1905.56 321.753 1913.61 313.155 1920.04 303.489L1925.01 295.919C1929.8 288.349 1934.08 280.774 1937.86 273.21C1942.91 263.077 1947.43 254.56 1951.42 247.668L1951.43 247.656C1951.66 247.267 1951.91 246.899 1952.17 246.583C1953.05 244.477 1953.93 242.353 1954.81 240.207L1956.06 237C1959.01 229.299 1962.38 220.066 1966.17 209.313L1966.18 209.301C1970.87 197.013 1976.11 182.72 1981.89 166.45L1982.12 165.799H1984.23L1984.49 166.016C1988.05 168.87 1990.9 170.137 1993.08 170.139C2001.5 170.138 2009.74 162.871 2017.67 147.345L2019.52 147.791V148.333C2019.52 148.499 2019.47 148.66 2019.46 148.707C2019.44 148.79 2019.41 148.884 2019.37 148.984C2019.31 149.193 2019.21 149.476 2019.08 149.816C2018.83 150.498 2018.46 151.468 2017.96 152.721C2016.97 155.235 2015.48 158.915 2013.49 163.75C2009.52 173.428 2003.56 187.77 1995.62 206.758C1986.95 227.371 1980.44 243.094 1976.11 253.936C1975.57 255.293 1975.06 256.581 1974.57 257.793C1992.08 227.489 2008.03 204.202 2022.42 187.966C2038.87 169.413 2053.47 159.835 2066.2 159.833C2071.85 159.833 2076.95 161.732 2081.45 165.486C2086.01 169.292 2088.31 174.271 2088.31 180.336C2088.31 188.121 2085.67 198.302 2080.51 210.82C2075.34 223.355 2067.6 238.315 2057.29 255.696C2047.01 273.038 2039.32 287.61 2034.2 299.402C2029.06 311.224 2026.56 320.153 2026.56 326.27C2026.56 330.679 2028.23 333.987 2031.56 336.323C2034.98 338.723 2039.11 339.951 2044 339.951C2048.91 339.951 2054.03 338.887 2059.34 336.757C2064.7 334.611 2069.13 332.297 2072.66 329.826C2082.32 322.297 2090.56 313.523 2097.36 303.489C2104.2 293.395 2110.13 283.295 2115.16 273.21C2115.85 271.836 2116.53 270.498 2117.2 269.184C2120.92 256.759 2126.41 243.092 2133.67 228.201L2133.68 228.189C2134.41 226.721 2137.85 220.367 2143.98 209.168C2150.33 197.859 2159.28 181.879 2170.8 161.243H2143.89L2142.16 159.519L2142.84 155.457L2143.07 155.24L2143.61 154.698L2143.89 154.408H2174.6L2213.75 85.7867L2214.56 86.1363C2217.66 87.5167 2221.31 88.2216 2225.54 88.2216C2230.36 88.2207 2235.59 86.5052 2241.27 82.9541L2241.29 82.93L2241.33 82.9179C2247.38 79.708 2251.34 76.1987 2253.38 72.4553L2253.78 71.7441L2257.32 72.9254ZM1922.54 339.831C1919.29 340.915 1916.44 343.628 1914 347.967C1911.54 353.204 1909.21 356.601 1907.01 358.164C1907.92 357.518 1908.86 356.571 1909.82 355.295C1910.16 354.844 1910.5 354.355 1910.84 353.825C1911.88 352.231 1912.92 350.273 1914 347.967C1916.03 344.352 1918.36 341.873 1920.96 340.518C1921.48 340.246 1921.99 340.011 1922.54 339.831ZM2989.26 346.87L2990.95 346.882C2990.12 346.882 2989.29 346.864 2988.48 346.846C2988.74 346.852 2989 346.866 2989.26 346.87ZM1866.67 345.785L1867.76 345.797C1866.95 345.797 1866.15 345.744 1865.37 345.713C1865.79 345.73 1866.23 345.777 1866.67 345.785ZM2043.46 345.797C2042.58 345.797 2041.71 345.742 2040.85 345.701C2041.4 345.727 2041.96 345.788 2042.52 345.797H2043.46ZM2277.48 345.785L2279.12 345.797L2276.86 345.761C2277.07 345.766 2277.27 345.781 2277.48 345.785ZM2567.38 342.543C2562.32 344.712 2556.9 345.797 2551.13 345.797C2553.3 345.797 2555.42 345.644 2557.48 345.339C2558.86 345.135 2560.21 344.871 2561.54 344.532C2563.54 344.023 2565.48 343.356 2567.38 342.543ZM2685.35 344.688C2682.93 345.07 2680.5 345.243 2678.07 345.243L2678.08 345.255C2681.33 345.255 2684.55 344.92 2687.76 344.242L2685.35 344.688ZM2060.78 342.543C2060.1 342.813 2059.43 343.077 2058.74 343.314L2060.78 342.543ZM2692.54 342.965C2692.39 343.012 2692.24 343.051 2692.1 343.097C2693.04 342.805 2693.99 342.497 2694.93 342.145L2692.54 342.965ZM1953.55 307.828C1948.86 317.954 1943.79 329.343 1938.37 342L1937.29 342.531L1937.3 342.543L1938.37 342C1943.79 329.343 1948.86 317.954 1953.55 307.828ZM2861.35 342.543H2862.35C2861.45 342.543 2860.57 342.492 2859.7 342.458C2860.24 342.479 2860.79 342.535 2861.35 342.543ZM2988.37 342.374C2990.18 342.487 2991.94 342.543 2993.65 342.543C2990.22 342.542 2986.62 342.32 2982.83 341.868L2988.37 342.374ZM2194.04 324.607C2181.01 335.233 2167.82 340.992 2154.45 341.88C2161.74 341.396 2168.98 339.465 2176.18 336.082C2177.38 335.518 2178.58 334.918 2179.77 334.274C2182.16 332.985 2184.55 331.533 2186.93 329.922C2189.31 328.312 2191.67 326.539 2194.04 324.607ZM2149.6 341.988H2150.77C2149.79 341.988 2148.82 341.941 2147.88 341.904C2148.44 341.926 2149.02 341.979 2149.6 341.988ZM2030.99 337.119C2034.6 339.649 2038.93 340.914 2043.99 340.915C2043.36 340.915 2042.75 340.894 2042.14 340.855C2041.53 340.816 2040.93 340.765 2040.35 340.686C2039.17 340.528 2038.04 340.28 2036.96 339.963C2036.42 339.805 2035.89 339.63 2035.37 339.433C2033.81 338.84 2032.35 338.067 2030.99 337.119ZM2539.75 336.576C2542.91 338.792 2546.49 340.036 2550.48 340.313L2548.8 340.144C2545.48 339.67 2542.46 338.475 2539.75 336.576ZM2736.57 171.006C2719.68 171.006 2703.51 181.222 2688.07 202.081C2675.51 218.614 2666.53 237.13 2661.14 257.624V257.648C2657.92 268.767 2656.31 280.431 2656.31 292.64C2656.31 308.675 2658.51 320.548 2662.82 328.38C2664.96 332.28 2667.61 335.162 2670.76 337.07C2673.91 338.977 2677.6 339.951 2681.87 339.951C2700.43 339.949 2718.9 325.764 2737.24 296.678C2737.31 295.58 2737.82 294.546 2738.62 293.593C2732.3 282.862 2729.1 272.591 2729.1 262.795V260.626C2729.1 259.116 2729.29 257.26 2729.65 255.081C2730.02 251.056 2730.75 247.035 2731.85 243.015C2732.96 238.58 2734.8 234.507 2737.38 230.805C2742.9 221.962 2749.67 217.342 2757.69 217.341H2762.69L2762.8 217.365C2764.23 217.722 2765.22 217.882 2765.82 217.883H2766.47C2766.36 202.174 2763.81 190.508 2758.91 182.759C2753.96 174.926 2746.56 171.007 2736.57 171.006ZM2338.68 319.761C2331.83 326.631 2323.16 332.78 2312.7 338.203C2311.75 338.66 2310.79 339.077 2309.83 339.493C2310.46 339.22 2311.1 338.964 2311.72 338.673L2312.7 338.203C2323.16 332.78 2331.83 326.631 2338.68 319.761ZM2857.76 337.058C2858.04 337.144 2858.33 337.195 2858.63 337.263C2857.86 337.088 2857.16 336.873 2856.53 336.576L2857.76 337.058ZM1899.18 334.406C1898.23 335.065 1897.25 335.685 1896.27 336.299C1896.95 335.874 1897.63 335.456 1898.3 335.009L1899.18 334.406ZM2666.95 335.395C2665.15 333.716 2663.55 331.655 2662.17 329.211C2663.5 331.566 2665.02 333.57 2666.75 335.214L2666.95 335.395ZM2076.48 334.406C2075.56 335.044 2074.61 335.643 2073.65 336.239C2074.31 335.831 2074.98 335.436 2075.62 335.009L2076.48 334.406ZM2964.17 335.371L2967.12 335.491C2965.26 335.491 2963.5 335.329 2961.85 335.057C2962.61 335.181 2963.37 335.304 2964.17 335.371ZM3045.65 333.864C3044.97 334.262 3044.28 334.642 3043.59 335.021C3044.05 334.77 3044.51 334.533 3044.96 334.274L3045.65 333.864ZM3016.89 173.381C3010.69 185.575 3004.48 196.751 2998.28 206.89C2991.55 217.896 2985.16 227.861 2979.12 236.783C2980.78 239.628 2981.63 242.518 2981.63 245.438C2981.63 250.754 2979.55 256.544 2975.52 262.783L2975.51 262.795V262.819C2972.86 266.614 2968.37 270.137 2962.17 273.427C2956.09 276.648 2951.89 279.635 2949.48 282.383C2945.67 287.955 2943.73 295.328 2943.73 304.574C2943.73 314.778 2945.74 322.254 2949.61 327.162C2953.44 332.026 2959.22 334.526 2967.12 334.527C2984.93 334.527 2999.86 321.072 3011.73 293.327L3013.49 289.277C3022.01 269.022 3026.27 248.626 3026.27 228.081C3026.27 225.294 3025.75 221.576 3024.68 216.907L3024.67 216.859L3024.65 216.823C3023.94 211.808 3022.69 205.878 3020.89 199.031L3020.88 199.007C3019.43 192.484 3018.34 186.837 3017.61 182.108L3017.1 177.54C3016.97 176.088 3016.91 174.699 3016.89 173.381ZM2424.14 328.85C2424.51 330.386 2425.05 331.876 2425.77 333.322C2424.69 331.153 2424.02 328.883 2423.75 326.511L2424.14 328.85ZM2850.97 324.101C2850.97 327.355 2851.7 330.429 2853.14 333.322C2853.16 333.355 2853.19 333.385 2853.2 333.418L2853.14 333.322C2852.78 332.597 2852.47 331.863 2852.2 331.116C2851.93 330.371 2851.71 329.617 2851.53 328.85C2851.17 327.312 2850.97 325.729 2850.97 324.101ZM1932.21 296.437C1926.04 307.775 1918.67 317.453 1910.11 325.487C1915.67 320.27 1920.73 314.366 1925.28 307.756C1926.51 305.97 1927.71 304.134 1928.86 302.247C1930.02 300.36 1931.13 298.426 1932.21 296.437C1932.32 296.25 1932.43 296.059 1932.53 295.871C1932.54 295.831 1932.56 295.79 1932.58 295.75C1932.45 295.977 1932.34 296.21 1932.21 296.437ZM2483.12 319.183C2482.36 319.905 2481.58 320.603 2480.82 321.292C2481.33 320.833 2481.85 320.38 2482.36 319.906L2483.12 319.183ZM2494.12 307.997C2491.61 310.686 2489.05 313.343 2486.44 315.964C2485.52 316.883 2484.59 317.769 2483.68 318.64C2484.32 318.03 2484.98 317.418 2485.62 316.784L2486.44 315.964C2490.36 312.032 2494.17 308.019 2497.84 303.935L2494.12 307.997ZM2913.8 315.964C2913.18 316.585 2912.55 317.185 2911.93 317.784C2912.27 317.45 2912.63 317.125 2912.98 316.784L2913.8 315.964ZM2256.26 310.034C2256.56 312.767 2257 315.329 2257.59 317.724L2256.82 314C2256.6 312.72 2256.41 311.398 2256.26 310.034ZM2434.44 289.386C2429.02 297.793 2425.64 306.403 2424.29 315.217L2425.14 310.829C2426.84 303.54 2429.93 296.393 2434.44 289.386ZM2134.53 314.879C2134.53 313.587 2134.58 312.261 2134.67 310.902V310.841C2134.58 312.222 2134.53 313.568 2134.53 314.879ZM2009.34 313.746C2009.35 314.192 2009.4 314.636 2009.42 315.072C2009.39 314.299 2009.33 313.513 2009.33 312.71L2009.34 313.746ZM2232.83 276.416C2231.32 278.963 2229.8 281.484 2228.24 283.962C2229.78 281.507 2231.31 279.011 2232.81 276.488C2232.74 276.966 2232.69 277.446 2232.64 277.923C2232.69 277.42 2232.76 276.919 2232.83 276.416ZM1915.66 311.143C1914.81 312.223 1913.93 313.286 1913.02 314.337C1914.89 312.166 1916.66 309.934 1918.33 307.635L1915.66 311.143ZM1853.77 306.165C1853.39 307.509 1853.07 308.813 1852.77 310.07L1853.77 306.165C1854.14 304.823 1854.56 303.436 1855.01 302.006L1853.77 306.165ZM3080.86 307.828C3080.15 308.534 3079.41 309.22 3078.67 309.925C3079.13 309.49 3079.59 309.071 3080.04 308.636L3080.86 307.828ZM1832.04 307.43C1832.04 307.677 1832.07 307.921 1832.07 308.166C1832.06 307.593 1832.03 307.015 1832.02 306.43L1832.04 307.43ZM2135.05 306.599L2135.04 306.731C2135.15 305.785 2135.3 304.826 2135.45 303.85C2135.31 304.781 2135.16 305.695 2135.05 306.599ZM2944.23 291.821C2943.28 295.446 2942.8 299.485 2942.76 303.935C2942.79 300.648 2943.07 297.587 2943.59 294.75C2943.78 293.745 2943.98 292.769 2944.23 291.821ZM2773.17 299.475C2768.83 301.065 2764.2 301.849 2759.31 301.849L2759.32 301.861C2760.02 301.861 2760.71 301.846 2761.4 301.813C2762.78 301.748 2764.13 301.611 2765.47 301.415C2768.79 300.928 2771.98 300.038 2775.02 298.74L2773.17 299.475ZM2272.28 267.111C2268.98 267.495 2265.66 267.677 2262.33 267.677C2257.99 278.889 2255.83 290.107 2255.83 301.319L2255.94 297.112C2256.41 287.302 2258.53 277.487 2262.33 267.677C2264 267.677 2265.67 267.629 2267.33 267.532C2268.99 267.436 2270.63 267.303 2272.28 267.111ZM2109.52 296.437C2108.75 297.85 2107.94 299.223 2107.14 300.584C2107.66 299.7 2108.21 298.825 2108.71 297.92L2109.52 296.437C2110.9 293.914 2112.27 291.397 2113.61 288.892C2113.61 288.856 2113.61 288.819 2113.62 288.783C2112.27 291.32 2110.91 293.882 2109.52 296.437ZM2613.39 300.234C2613.84 299.464 2614.32 298.706 2614.76 297.92L2615.58 296.437L2613.39 300.234ZM2515.14 282.877C2510.81 288.661 2506.25 294.311 2501.47 299.824L2505.02 295.666C2506.19 294.269 2507.34 292.861 2508.48 291.447C2509.62 290.034 2510.75 288.61 2511.86 287.18C2512.97 285.753 2514.06 284.321 2515.14 282.877ZM1925.72 156.47L1879.67 245.98C1872.5 259.813 1866.68 272.076 1862.2 282.756C1865.19 275.635 1868.77 267.811 1872.96 259.288C1875.05 255.029 1877.28 250.589 1879.67 245.98L1925.72 156.47ZM2769.88 296.064C2768.79 296.367 2767.67 296.615 2766.54 296.823C2768.87 296.394 2771.12 295.776 2773.26 294.943L2769.88 296.064ZM2936.26 296.425C2936.27 296.506 2936.28 296.586 2936.28 296.666C2936.27 296.374 2936.27 296.081 2936.26 295.786V296.425ZM2762.63 260.469C2757.62 273.641 2751.64 284.187 2744.69 292.098C2748.66 287.578 2752.33 282.196 2755.67 275.958C2757.34 272.838 2758.93 269.503 2760.44 265.953C2761.95 262.404 2763.38 258.638 2764.73 254.659L2762.63 260.469ZM2366.31 287.216C2364.6 290.018 2362.74 292.8 2360.73 295.557L2363.64 291.399C2364.57 290.009 2365.45 288.617 2366.31 287.216ZM2232.01 290.519C2232.02 291.032 2232.06 291.544 2232.07 292.05C2232.05 291.116 2232 290.173 2232 289.217L2232.01 290.519ZM2936.04 291.194C2936.13 291.072 2936.24 290.955 2936.34 290.832V290.808C2936.23 290.935 2936.14 291.067 2936.04 291.194ZM2630.43 283.877C2630.44 284.32 2630.48 284.764 2630.49 285.203C2630.47 284.322 2630.42 283.435 2630.42 282.539L2630.43 283.877ZM3048.31 278.682L3048.36 278.525C3048.35 278.575 3048.33 278.633 3048.31 278.682ZM2512.44 279.068L2512.04 279.61C2512.17 279.432 2512.31 279.246 2512.44 279.068ZM2518.98 277.417C2519.18 277.123 2519.38 276.83 2519.58 276.537C2519.59 276.516 2519.6 276.497 2519.61 276.476C2519.4 276.787 2519.2 277.106 2518.98 277.417ZM1967.63 272.016C1967.65 271.972 1967.68 271.928 1967.7 271.884C1968.09 271.08 1968.86 269.247 1970.04 266.387C1968.79 269.418 1967.99 271.294 1967.63 272.016ZM2629.6 269.714C2630.19 268.54 2630.8 267.376 2631.38 266.207C2631.39 266.17 2631.4 266.135 2631.41 266.098C2630.8 267.3 2630.21 268.508 2629.6 269.714ZM1975.21 253.574C1973.31 258.331 1971.75 262.184 1970.54 265.134C1971.06 263.865 1971.66 262.434 1972.3 260.831L1975.21 253.574ZM2730.09 263.711C2730.09 263.883 2730.12 264.058 2730.12 264.23C2730.11 263.811 2730.08 263.393 2730.08 262.976L2730.09 263.711ZM2266.64 254.406C2265.7 256.554 2264.79 258.652 2264 260.734L2262.87 263.88C2263.94 260.792 2265.22 257.644 2266.64 254.406ZM2941.12 263.374V263.88C2941.13 263.864 2941.13 263.848 2941.13 263.832V263.338L2941.12 263.374ZM2809.18 260.469C2808.72 261.35 2808.25 262.219 2807.79 263.073C2808.25 262.231 2808.72 261.385 2809.18 260.517C2809.39 260.162 2809.59 259.798 2809.8 259.444C2809.6 259.788 2809.39 260.124 2809.18 260.469ZM2346.82 171.006C2340.25 171.007 2332.87 173.952 2324.65 180.035C2316.44 186.113 2307.47 195.269 2297.75 207.529L2297.74 207.541C2288.74 218.359 2281.56 228.442 2276.17 237.784C2271.07 246.652 2267.09 255.023 2264.25 262.892C2283.33 262.411 2304.75 252.015 2328.52 231.432V230.877L2328.86 230.588C2335.62 224.887 2342.06 217.025 2348.16 206.963L2348.17 206.938C2355.35 195.789 2358.85 186.391 2358.85 178.709C2358.85 176.1 2357.89 174.251 2356.03 173.007C2354.1 171.718 2351.07 171.006 2346.82 171.006ZM2364.14 181.963C2364.14 197.515 2355.66 213.795 2338.68 230.793C2323.31 246.418 2307.43 257.062 2291.04 262.759C2297.76 260.424 2304.4 257.277 2310.95 253.273C2312.52 252.312 2314.09 251.304 2315.65 250.247C2323.46 244.964 2331.13 238.477 2338.68 230.793C2343.99 225.479 2348.48 220.235 2352.12 215.063C2360.14 203.69 2364.14 192.652 2364.14 181.963ZM2386.44 252.224C2385.41 254.173 2384.3 256.133 2383.16 258.131C2382.82 258.784 2382.49 259.445 2382.15 260.095C2382.5 259.436 2382.86 258.781 2383.21 258.119C2384.35 256.131 2385.42 254.164 2386.44 252.224ZM3051.06 257.914C3051.06 258.619 3051.04 259.32 3051.01 260.011C3051.03 259.541 3051.07 259.065 3051.07 258.589L3051.06 257.914ZM3119.31 251.405C3118.14 253.61 3116.93 255.789 3115.73 257.95C3116.57 256.452 3117.42 254.949 3118.24 253.43L3119.31 251.405ZM2378.65 257.648C2379.07 256.893 2379.5 256.119 2379.93 255.322C2380.82 253.662 2381.69 251.966 2382.57 250.247C2381.27 252.78 2379.96 255.243 2378.65 257.648ZM2056.45 255.202C2056.26 255.521 2056.08 255.849 2055.9 256.166L2056.45 255.202ZM2634.42 250.26C2634.37 250.347 2634.32 250.437 2634.27 250.525C2634.33 250.432 2634.38 250.34 2634.43 250.247C2634.49 250.01 2634.56 249.774 2634.62 249.536C2634.56 249.777 2634.48 250.018 2634.42 250.26ZM2766.21 184.615C2770.27 192.617 2772.31 202.043 2772.31 212.893C2772.31 219.402 2771.59 226.092 2770.14 232.962C2769.33 238.115 2768.11 243.471 2766.49 249.03L2767.98 243.546C2768.89 239.927 2769.6 236.4 2770.14 232.962C2771.59 226.092 2772.31 219.402 2772.31 212.893C2772.31 201.137 2769.93 191.05 2765.16 182.638L2766.21 184.615ZM3036.44 210.723C3043.75 224.013 3048.33 236.182 3050.16 247.234L3049.65 244.45C3047.56 234.147 3043.14 222.906 3036.44 210.723ZM2982.62 229.78C2981.04 232.175 2979.48 234.5 2977.95 236.759C2979.75 239.652 2980.66 242.545 2980.66 245.438C2980.66 245.911 2980.62 246.39 2980.59 246.872C2980.61 246.552 2980.65 246.236 2980.66 245.92V245.438C2980.66 242.545 2979.75 239.652 2977.95 236.759C2981.02 232.238 2984.18 227.443 2987.43 222.379L2982.62 229.78ZM2950.95 245.474C2950.77 245.692 2950.61 245.919 2950.44 246.137C2950.76 245.727 2951.08 245.304 2951.42 244.896L2950.95 245.474ZM2035.57 240.315C2035.53 240.396 2035.48 240.476 2035.43 240.556C2035.59 240.291 2035.75 240.027 2035.91 239.761L2035.57 240.315ZM2296.98 206.926C2287.95 217.774 2280.73 227.9 2275.32 237.302C2275.26 237.405 2275.21 237.512 2275.15 237.615L2275.32 237.302C2280.73 227.9 2287.95 217.774 2296.98 206.926ZM2975.25 234.59L2974.34 234.337C2973.83 234.198 2973.34 234.091 2972.9 233.987L2975.25 234.59ZM2166.57 227.128C2165.31 229.363 2164.09 231.571 2162.91 233.746C2164.09 231.585 2165.31 229.397 2166.56 227.177L2166.57 227.128ZM2737.73 232.022C2737.55 232.288 2737.41 232.572 2737.24 232.842C2737.53 232.379 2737.8 231.907 2738.12 231.456L2737.73 232.022ZM2412.95 178.877C2411.93 183.558 2410.61 188.753 2408.98 194.451C2406.82 202.044 2404.29 210.001 2401.4 218.317C2400.36 221.22 2398.96 224.713 2397.22 228.804C2398.77 225.156 2400.07 221.985 2401.06 219.281L2401.4 218.317C2402.84 214.157 2404.21 210.086 2405.47 206.107C2406.74 202.129 2407.91 198.236 2408.99 194.439C2411.16 186.846 2412.78 180.155 2413.86 174.369L2412.95 178.877ZM2140.74 217.124C2139.02 220.281 2137.68 222.826 2136.65 224.718C2138.25 221.754 2140.69 217.225 2144.01 211.157L2140.74 217.124ZM2450.11 219.981C2449.37 220.962 2448.65 221.935 2447.94 222.886C2449.23 221.163 2450.56 219.384 2451.94 217.558L2450.11 219.981ZM2860.72 173.285C2852.78 173.646 2846.28 174.008 2841.22 174.369C2840.14 180.156 2838.52 186.856 2836.35 194.451C2834.19 202.044 2831.66 210.001 2828.77 218.317C2828.32 219.582 2827.8 220.961 2827.22 222.452L2828.77 218.317C2831.66 209.999 2834.2 202.034 2836.36 194.439C2838.53 186.846 2840.14 180.155 2841.22 174.369C2846.28 174.008 2852.78 173.646 2860.72 173.285C2864.87 173.104 2868.86 172.965 2872.65 172.875L2860.72 173.285ZM2756.99 218.329C2756.88 218.333 2756.77 218.336 2756.67 218.341L2757.69 218.317L2756.99 218.329ZM2687.27 201.502C2683.85 206.005 2680.7 210.655 2677.81 215.448C2680.37 211.205 2683.14 207.072 2686.12 203.057L2687.27 201.502ZM2997.45 206.384C2995.74 209.184 2994.04 211.916 2992.37 214.581L2997.45 206.384C2999.16 203.581 3000.88 200.691 3002.6 197.729L2997.45 206.384ZM1994.7 206.384C1994.11 207.787 1993.55 209.173 1992.98 210.53L1994.7 206.384ZM2726.91 171.139C2716.29 173.597 2706.02 180.15 2696.11 190.799L2699.1 187.737C2704.09 182.818 2709.18 178.926 2714.35 176.057C2716.41 174.91 2718.49 173.923 2720.59 173.104C2723.73 171.875 2726.91 171.016 2730.11 170.524L2726.91 171.139ZM2925.18 184.675C2925.18 185.292 2925.11 185.944 2925.03 186.628C2925.08 186.15 2925.16 185.687 2925.18 185.242V184.675ZM2497.8 184.675C2497.8 185.205 2497.74 185.76 2497.68 186.339C2497.72 185.963 2497.79 185.597 2497.8 185.242V184.675ZM2087.32 180.336C2087.32 181.087 2087.27 181.864 2087.22 182.662C2087.26 182.116 2087.31 181.583 2087.32 181.059V180.336ZM2761.48 177.081C2762.38 178.258 2763.23 179.478 2764.02 180.734L2762.8 178.877C2762.38 178.269 2761.93 177.67 2761.48 177.081ZM2495.2 175.924C2495.18 175.894 2495.15 175.87 2495.13 175.84C2495.48 176.313 2495.8 176.807 2496.08 177.323L2495.2 175.924ZM2922.57 175.924C2921.48 174.432 2920.05 173.157 2918.28 172.079C2920.58 173.48 2922.3 175.224 2923.45 177.323L2922.57 175.924ZM2433.35 173.285C2429.38 173.465 2425.78 173.646 2422.53 173.827L2433.35 173.285ZM3028.02 157.518C3027.23 157.722 3026.6 157.916 3026.15 158.097C3023.26 160.268 3021.82 164.971 3021.82 172.2C3021.82 172.35 3021.84 172.504 3021.84 172.658L3021.82 172.2C3021.82 166.773 3022.64 162.771 3024.27 160.194C3024.54 159.765 3024.83 159.375 3025.15 159.025C3025.46 158.676 3025.79 158.367 3026.15 158.097C3027.05 157.735 3028.64 157.331 3030.9 156.879L3028.02 157.518ZM2344.22 170.175C2342.45 170.366 2340.65 170.755 2338.79 171.332L2341.54 170.609C2342.44 170.416 2343.34 170.271 2344.22 170.175ZM2417.11 157.012L2414.41 170.03C2415.22 166.233 2415.93 162.84 2416.54 159.857L2417.11 157.012ZM2836.35 130.976C2842.49 130.976 2845.56 136.58 2845.56 147.791C2845.56 150.322 2845.2 153.396 2844.48 157.012C2843.75 160.628 2842.85 164.967 2841.76 170.03L2841.78 170.018C2842.59 166.226 2843.3 162.837 2843.91 159.857L2844.48 157.012C2845.2 153.396 2845.56 150.322 2845.56 147.791C2845.56 144.986 2845.38 142.529 2844.99 140.426C2844.9 139.902 2844.79 139.4 2844.67 138.919C2843.35 133.623 2840.57 130.978 2836.35 130.976ZM2470.19 167.86C2471.27 167.86 2472.33 167.882 2473.35 167.921C2472.6 167.892 2471.84 167.868 2471.06 167.86H2470.19ZM2897.55 167.86C2898.63 167.86 2899.69 167.882 2900.71 167.921C2899.96 167.892 2899.2 167.868 2898.42 167.86H2897.55ZM2080.82 166.233C2081.28 166.615 2081.7 167.02 2082.11 167.426C2081.83 167.142 2081.54 166.843 2081.23 166.571L2080.82 166.233ZM2336.53 162.979C2337.35 162.979 2338.16 163.001 2338.95 163.027C2338.44 163.01 2337.91 162.984 2337.38 162.979H2336.53ZM2728.98 162.436C2729.73 162.436 2730.48 162.457 2731.21 162.484C2730.91 162.473 2730.61 162.455 2730.31 162.448L2728.98 162.436ZM2067.77 160.869C2067.42 160.846 2067.06 160.816 2066.71 160.809H2066.2L2067.77 160.869ZM3044.87 154.228C3043.39 154.719 3041.67 155.116 3039.7 155.385L3042.41 154.915C3043.29 154.722 3044.11 154.479 3044.87 154.228ZM2417.61 140.438C2417.99 142.539 2418.19 144.99 2418.19 147.791C2418.19 148.229 2418.18 148.683 2418.15 149.153C2418.17 148.853 2418.2 148.56 2418.2 148.273L2418.19 147.791C2418.19 146.39 2418.15 145.075 2418.06 143.849C2417.91 142.008 2417.66 140.366 2417.3 138.919L2417.61 140.438ZM3051.44 148.237C3051.51 147.882 3051.58 147.52 3051.61 147.14L3051.62 146.706C3051.62 147.241 3051.54 147.749 3051.44 148.237ZM3043.48 140.74C3044.05 140.74 3044.59 140.768 3045.1 140.812C3044.74 140.782 3044.38 140.749 3044 140.74H3043.48ZM2415.89 135.183C2416.27 135.884 2416.61 136.669 2416.9 137.545L2416.44 136.292C2416.27 135.898 2416.08 135.533 2415.89 135.183ZM2404.58 131.615C2404.22 131.732 2403.88 131.876 2403.54 132.025C2404.29 131.695 2405.09 131.439 2405.94 131.265L2404.58 131.615ZM3047.6 281.491C3047.78 280.828 3047.97 280.164 3048.13 279.49L3048.31 278.682C3048.09 279.63 3047.85 280.565 3047.6 281.491Z" fill="black"/>
<path fill-rule="evenodd" clip-rule="evenodd" d="M1593.16 97.9971C1599.08 97.9973 1603.7 99.4261 1606.84 102.469C1609.98 105.516 1611.47 110.017 1611.47 115.776C1611.47 122.052 1610.03 126.942 1607.01 130.265C1603.97 133.604 1599.47 135.195 1593.7 135.195C1587.78 135.195 1583.16 133.766 1580.02 130.723C1576.88 127.676 1575.39 123.176 1575.39 117.416C1575.39 111.139 1576.83 106.237 1579.85 102.915C1582.89 99.5793 1587.39 97.9971 1593.16 97.9971ZM1593.16 134.218H1593.67C1593.21 134.218 1592.77 134.2 1592.34 134.182C1592.61 134.193 1592.88 134.214 1593.16 134.218ZM1576.37 117.934C1576.37 117.978 1576.38 118.022 1576.38 118.067C1576.38 117.962 1576.37 117.858 1576.37 117.753V117.934ZM1608.06 105.567C1609.67 108.191 1610.48 111.6 1610.48 115.788C1610.48 116.415 1610.45 117.026 1610.42 117.621C1610.44 117.206 1610.47 116.785 1610.48 116.355L1610.49 115.776C1610.49 111.588 1609.67 108.19 1608.06 105.567ZM1593.15 98.9614C1593.5 98.9614 1593.85 98.987 1594.2 98.9976C1594.03 98.9925 1593.86 98.976 1593.69 98.9735L1593.15 98.9614Z" fill="black"/>
<path fill-rule="evenodd" clip-rule="evenodd" d="M1931.14 97.9971C1937.06 97.9977 1941.67 99.4284 1944.81 102.469C1947.95 105.516 1949.44 110.016 1949.44 115.776C1949.44 122.051 1948.01 126.942 1944.99 130.265C1941.95 133.604 1937.45 135.194 1931.68 135.195C1925.76 135.195 1921.14 133.765 1918 130.723C1914.86 127.676 1913.38 123.176 1913.37 117.416C1913.37 111.139 1914.8 106.237 1917.82 102.915C1920.86 99.5761 1925.37 97.9971 1931.14 97.9971ZM1931.14 134.218H1931.65C1931.2 134.218 1930.76 134.2 1930.32 134.182C1930.59 134.193 1930.86 134.214 1931.14 134.218ZM1948.4 117.416C1948.42 117.067 1948.46 116.714 1948.46 116.355L1948.47 115.776C1948.47 111.589 1947.65 108.19 1946.04 105.567C1947.65 108.19 1948.46 111.6 1948.46 115.788C1948.46 116.344 1948.43 116.885 1948.4 117.416ZM1914.35 117.934C1914.35 117.978 1914.36 118.022 1914.36 118.067C1914.36 117.962 1914.35 117.858 1914.35 117.753V117.934ZM1931.13 98.9614C1931.48 98.9614 1931.83 98.987 1932.18 98.9976C1932.01 98.9925 1931.84 98.9761 1931.67 98.9735L1931.13 98.9614Z" fill="black"/>
<path fill-rule="evenodd" clip-rule="evenodd" d="M2614.51 97.9971C2620.42 97.9979 2625.04 99.4284 2628.18 102.469C2631.32 105.516 2632.8 110.016 2632.8 115.776C2632.8 122.051 2631.38 126.942 2628.36 130.265C2625.32 133.604 2620.82 135.194 2615.05 135.195C2609.13 135.195 2604.5 133.765 2601.37 130.723C2598.23 127.676 2596.74 123.176 2596.74 117.416C2596.74 111.139 2598.16 106.237 2601.19 102.915C2604.23 99.5766 2608.74 97.9972 2614.51 97.9971ZM2631.77 117.416C2631.78 117.067 2631.82 116.714 2631.83 116.355V115.776C2631.83 116.332 2631.79 116.885 2631.77 117.416ZM2597.72 117.934C2597.72 117.978 2597.73 118.022 2597.73 118.067C2597.73 117.962 2597.72 117.858 2597.72 117.753V117.934ZM2614.49 98.9614C2614.85 98.9614 2615.2 98.987 2615.54 98.9976C2615.38 98.9925 2615.21 98.9761 2615.04 98.9735L2614.49 98.9614Z" fill="black"/>
<path d="M216 432.005C335.293 432.005 432 335.297 432 216.002C432 96.7075 335.293 0 216 0C96.7065 0 0 96.7075 0 216.002C0 335.297 96.7065 432.005 216 432.005Z" fill="url(#paint0_linear_1501_3643)"/>
<path d="M216.021 429.135C333.73 429.135 429.152 333.712 429.152 216.002C429.152 98.292 333.73 2.86914 216.021 2.86914C98.3124 2.86914 2.89062 98.292 2.89062 216.002C2.89062 333.712 98.3124 429.135 216.021 429.135Z" fill="url(#paint1_linear_1501_3643)"/>
<path d="M217.536 68.6303C218.314 68.553 219.033 68.6942 219.666 68.9805L219.934 69.1114L219.939 69.1143C220.239 69.2757 220.479 69.4703 220.566 69.5413C220.697 69.6478 220.831 69.7659 220.957 69.8801C221.211 70.1111 221.511 70.4 221.829 70.717C222.47 71.3551 223.254 72.1762 224.036 73.0315C225.541 74.6774 227.357 76.6308 228.062 77.37C236.021 85.6971 244.012 94.4383 251.912 102.846L255.291 106.427L255.294 106.43C255.998 107.174 256.561 107.908 256.967 108.55C257.168 108.867 257.352 109.198 257.498 109.522C257.586 109.716 257.862 110.326 257.872 111.06L257.866 111.335C257.791 112.69 257.032 113.766 256.347 114.407C255.547 115.156 254.349 115.8 252.904 115.8C251.773 115.8 250.853 115.347 250.163 114.859C249.499 114.391 248.86 113.76 248.229 113.072L248.227 113.07C238.159 102.074 228.074 90.8287 217.566 80.147C217.138 80.538 216.608 81.0394 215.945 81.6815L211.117 86.3915C196.99 100.169 182.303 113.74 168.169 127.371L168.167 127.374C166.913 128.58 165.73 129.67 164.561 130.232C163.864 130.568 163.058 130.78 162.158 130.708C161.308 130.64 160.619 130.335 160.133 130.074C159.905 129.952 159.455 129.691 159.046 129.192C158.652 128.71 158.452 128.202 158.338 127.802C158.141 127.109 158.074 126.241 158.033 125.286C157.944 123.245 157.94 119.456 157.94 112.361V100.489H135.217L135.207 157.292V158.576L134.261 159.443L131.474 161.995C129.97 163.375 127.49 165.727 125.983 167.202C124.443 168.71 122.055 171.009 120.664 172.322C119.291 173.619 116.385 176.374 114.208 178.441L114.207 178.443C112.023 180.514 108.617 183.73 106.634 185.59L103.958 188.099L104.123 319.074L148.964 319.171L165.164 319.198C179.465 319.213 188.326 319.185 194.11 319.069C201.822 318.913 203.831 318.599 205.851 318.097C214.263 316.003 221.473 312.114 228.484 306.82L228.493 306.815C241.764 296.869 250.966 281.751 259.471 266.985C260.259 265.407 261.274 263.433 261.762 262.553C262.395 261.399 265.027 255.865 266.249 253.091C276.047 230.802 283.235 204.965 286.224 180.753L286.383 179.616C286.567 178.434 286.817 177.15 287.067 176.039C287.234 175.296 287.411 174.59 287.578 174.016C287.661 173.733 287.754 173.443 287.853 173.182C287.909 173.035 288.097 172.519 288.459 172.063C289.636 170.584 291.417 170.479 292.37 170.581C293.444 170.697 294.764 171.179 295.704 172.278C296.772 173.525 297.052 174.987 296.808 176.444C292.101 205.397 286.473 234.005 273.501 260.939C281.905 259.616 290.891 256.699 299.106 252.706C308.982 247.905 317.472 241.683 322.489 235.114C339.733 212.535 338.559 187.368 329.696 162.261C321.158 138.074 305.706 114.55 293.332 94.1704C292.755 98.8331 291.835 103.938 290.71 107.751L290.712 107.752C284.751 128.089 270.372 145.055 257.251 161.383C243.937 177.952 231.899 193.874 228.973 212.694C228.815 213.713 228.711 216.222 228.71 218.985C228.709 221.736 228.81 224.31 228.972 225.44L229.1 226.282C230.412 234.39 233.676 241.733 238.207 248.704L239.162 250.142L239.165 250.146C239.881 251.204 240.762 252.638 240.775 254.243C240.792 256.296 239.485 257.553 238.49 258.27L238.487 258.271C238.299 258.406 237.998 258.623 237.669 258.799C237.301 258.996 236.742 259.229 236.03 259.255C235.325 259.28 234.757 259.089 234.386 258.929C234.048 258.782 233.729 258.594 233.521 258.47L233.238 258.302L232.998 258.075C228.021 253.323 224.502 245.92 222.226 238.782C219.935 231.596 218.763 224.223 218.763 219.173C218.763 193.653 232.975 174.724 247.696 156.685C262.592 138.431 277.962 121.095 282.714 98.0933C283.303 93.7473 283.796 89.6826 283.912 85.4136C283.965 83.4208 284.011 81.8569 284.077 80.6538C284.141 79.4942 284.233 78.4688 284.432 77.6461C284.631 76.8244 285.075 75.6195 286.304 74.8662C287.34 74.2315 288.483 74.2576 288.795 74.2528H288.802C289.731 74.2405 290.429 74.6395 290.681 74.7908C291.022 74.9959 291.319 75.2365 291.546 75.4356C292.008 75.8404 292.47 76.3336 292.861 76.7764C293.655 77.6785 294.401 78.6557 294.682 79.0354C295.672 80.369 296.797 81.8467 297.803 83.3881C312.45 105.821 330.18 132.089 339.505 159.045C348.875 186.135 349.913 214.39 330.623 240.39L330.569 240.462C315.763 259.181 292.186 268.378 269.464 270.934C269.083 270.977 268.722 271.033 268.418 271.087C263.066 279.582 258.489 287.949 252.65 295.789C255.037 295.61 257.882 295.539 260.683 295.557C265.399 295.587 270.442 295.868 273.649 296.425L273.653 296.427C276.005 296.839 278.662 297.353 279.433 297.587C287.046 299.901 305.952 307.717 318.612 321.427C319.8 322.714 319.591 324.26 319.345 325.031C319.09 325.833 318.623 326.491 318.197 326.956C317.77 327.422 317.17 327.927 316.432 328.248C315.811 328.518 314.164 329.014 312.71 327.786C301.443 318.271 292.554 310.636 275.201 306.529C274.676 306.404 274.033 306.272 273.393 306.153C276.067 319.583 284.663 340.565 302.373 350.198L303.232 350.652L303.249 350.661L303.617 350.84C305.6 351.748 309.711 352.809 313.942 353.328C326.267 354.848 341.075 349.685 351.352 342.609L351.355 342.606C351.843 342.271 352.189 342.023 352.442 341.826C352.555 341.739 352.636 341.669 352.695 341.617C352.721 341.311 352.745 340.683 352.729 339.724C352.712 338.651 352.655 337.347 352.57 336.009C352.394 333.252 352.116 330.638 351.874 329.562C350.102 321.724 348.654 317.899 345.533 312.569C344.244 310.371 343.655 309.51 341.785 307.098C339.98 304.772 338.618 303.329 336.437 301.431L336.434 301.429C328.753 294.734 320.361 289.825 310.468 287.213L310.463 287.212C309.606 286.984 308.771 286.664 308.045 286.208C307.334 285.762 306.551 285.073 306.106 284.045C305.62 282.919 305.69 281.729 306.158 280.705C306.585 279.771 307.288 279.075 307.968 278.569C308.105 278.467 308.588 278.085 309.194 277.844C309.943 277.547 310.657 277.524 311.286 277.601C312.221 277.715 313.52 278.155 315.187 278.698C320.499 280.424 325.874 282.521 330.887 285.391L331.885 285.976L331.888 285.978C337.314 289.239 340.982 292.142 345.594 296.824L346.263 297.513C352.883 304.433 357.289 312.252 360.272 322.219L360.565 323.224L360.566 323.225C361.631 326.958 362.271 332.382 362.441 338.363L362.502 340.748C362.514 341.475 362.514 342.132 362.489 342.716C362.438 343.899 362.279 345.118 361.712 346.273C361.123 347.472 360.248 348.299 359.323 348.981C358.889 349.302 358.387 349.628 357.839 349.968L356.074 351.034C343.176 358.764 327.636 364.446 311.779 362.729L311.023 362.64C307.423 362.196 304.351 361.52 301.965 360.556C279.218 351.394 268.242 328.041 263.48 306.275L263.478 306.272C263.385 305.846 263.283 305.431 263.186 305.058C262.352 305.008 261.252 304.983 260.011 304.991C257.223 305.009 253.977 305.182 251.803 305.48C247.806 306.028 245.607 306.395 244.217 306.783C243.011 307.121 242.628 307.412 242.208 307.822L242.206 307.824C238.237 311.687 232.339 316.4 228.562 318.687L228.564 318.689C222.391 322.437 217.187 324.704 209.685 326.976C208.12 327.45 206.513 327.737 198.976 327.952C191.366 328.17 177.436 328.312 150.991 328.366L98.1429 328.476L96.4802 328.479L95.6332 327.045L95.0421 326.045L95.0378 326.038C94.7172 325.492 94.5759 324.938 94.4921 324.439C94.4106 323.954 94.3567 323.347 94.3145 322.577C94.2291 321.02 94.1724 318.42 94.134 313.972C94.0571 305.045 94.0519 288.44 94.0587 257.266C94.0621 239.04 94.0646 222.437 94.0658 210.369C94.0663 204.998 94.0658 200.525 94.0658 197.207C93.4562 197.798 92.7741 198.455 92.0194 199.192C90.4733 200.699 88.2964 202.777 87.1707 203.813C86.1038 204.799 83.1521 207.641 80.6068 210.132C78.2791 212.41 76.508 214.061 75.1399 214.85C74.4605 215.242 73.2361 215.813 71.8074 215.438C70.3161 215.047 69.5855 213.892 69.2722 213.306L69.0576 212.88C68.827 212.387 68.5769 211.697 68.5631 210.875C68.5437 209.707 68.9928 208.746 69.4925 207.992C70.3622 206.68 72.0869 205.013 74.6084 202.608C82.4235 195.153 82.8215 194.778 90.226 187.86C91.6171 186.558 94.5268 183.804 96.6806 181.742L96.682 181.741C98.852 179.667 103.138 175.6 106.207 172.696L106.209 172.695C115.113 164.282 115.959 163.481 118.527 160.985L118.528 160.983C119.899 159.652 122.198 157.488 123.658 156.157L125.32 154.641V126.047C125.32 111.066 125.327 103.276 125.477 99.1523C125.55 97.1504 125.662 95.7513 125.905 94.7668C126.038 94.2294 126.248 93.6411 126.638 93.09C127.037 92.5274 127.486 92.1993 127.744 92.0253L127.77 92.0082C128.119 91.7749 128.436 91.6749 128.52 91.6481C128.656 91.6047 128.771 91.5792 128.837 91.5655C128.971 91.5378 129.089 91.5213 129.158 91.5129C129.306 91.4948 129.465 91.4825 129.607 91.473C129.902 91.4533 130.293 91.4359 130.75 91.4204C131.67 91.389 132.959 91.3611 134.514 91.3378C137.629 91.2912 141.863 91.2624 146.468 91.2624C153.821 91.259 158.067 91.2735 160.533 91.3492C161.745 91.3864 162.651 91.4412 163.319 91.5399C163.823 91.6145 164.793 91.7786 165.604 92.4865L165.765 92.6359L165.778 92.6488C165.895 92.7664 166.17 93.0459 166.417 93.4644C166.664 93.882 166.807 94.3019 166.898 94.6885C167.056 95.365 167.116 96.2253 167.153 97.289C167.231 99.5105 167.227 103.66 167.213 111.614C167.211 112.807 167.214 113.955 167.222 115.019C178.469 104.291 205.944 78.08 211.977 72.2173L212.912 71.3291C213.823 70.4874 214.664 69.7965 215.454 69.3406C216.013 69.0184 216.716 68.712 217.536 68.6303ZM195.237 271.93H131.65V206.212H195.237V271.93ZM267.744 271.23C267.741 271.231 267.739 271.233 267.739 271.233C267.739 271.233 267.742 271.231 267.747 271.23L267.752 271.227L267.744 271.23ZM141.209 262.356H185.677V215.784H141.209V262.356Z" fill="black"/>
<defs>
<linearGradient id="paint0_linear_1501_3643" x1="81.1302" y1="81.1314" x2="399.027" y2="399.025" gradientUnits="userSpaceOnUse">
<stop stop-color="#DB9125"/>
<stop offset="0.0023" stop-color="#DC9327"/>
<stop offset="0.0412" stop-color="#E8B744"/>
<stop offset="0.0804" stop-color="#F2D35B"/>
<stop offset="0.1197" stop-color="#F9E76B"/>
<stop offset="0.159" stop-color="#FEF375"/>
<stop offset="0.1985" stop-color="#FFF778"/>
<stop offset="0.2777" stop-color="#EAC34A"/>
<stop offset="0.3358" stop-color="#D99A26"/>
<stop offset="0.3571" stop-color="#CB8E24"/>
<stop offset="0.3954" stop-color="#B77E21"/>
<stop offset="0.434" stop-color="#AB741F"/>
<stop offset="0.473" stop-color="#A7711E"/>
<stop offset="0.5111" stop-color="#AB7622"/>
<stop offset="0.5578" stop-color="#B8852E"/>
<stop offset="0.609" stop-color="#CD9E42"/>
<stop offset="0.6631" stop-color="#EBC15E"/>
<stop offset="0.6814" stop-color="#F6CE69"/>
<stop offset="0.7223" stop-color="#F3C962"/>
<stop offset="0.7808" stop-color="#EBBA4F"/>
<stop offset="0.8497" stop-color="#DEA231"/>
<stop offset="0.8701" stop-color="#D99A26"/>
<stop offset="1" stop-color="#F6CE69"/>
</linearGradient>
<linearGradient id="paint1_linear_1501_3643" x1="467.753" y1="-35.7325" x2="-277.033" y2="709.045" gradientUnits="userSpaceOnUse">
<stop stop-color="#DB9125"/>
<stop offset="0.0023" stop-color="#DC9327"/>
<stop offset="0.0412" stop-color="#E8B744"/>
<stop offset="0.0804" stop-color="#F2D35B"/>
<stop offset="0.1197" stop-color="#F9E76B"/>
<stop offset="0.159" stop-color="#FEF375"/>
<stop offset="0.1985" stop-color="#FFF778"/>
<stop offset="0.2777" stop-color="#EAC34A"/>
<stop offset="0.5578" stop-color="#B8852E"/>
<stop offset="0.609" stop-color="#CD9E42"/>
<stop offset="0.6631" stop-color="#EBC15E"/>
<stop offset="0.6814" stop-color="#F6CE69"/>
<stop offset="0.7223" stop-color="#F3C962"/>
<stop offset="0.7808" stop-color="#EBBA4F"/>
<stop offset="0.8497" stop-color="#DEA231"/>
<stop offset="0.8701" stop-color="#D99A26"/>
<stop offset="1" stop-color="#F6CE69"/>
</linearGradient>
</defs>
</svg>
